<svg width="301" height="228" viewBox="0 0 301 228" fill="none" xmlns="http://www.w3.org/2000/svg">
<path fill-rule="evenodd" clip-rule="evenodd" d="M70.173 48.7504C71.0308 57.8908 75.3732 68.5457 74.1938 76.0376C70.5081 100.604 46.0486 111.125 36.0905 132.502C28.7058 148.33 30.7295 167.817 38.3555 182.855C42.111 190.394 46.9867 197.321 52.8168 203.401C58.4381 208.953 64.8963 213.589 71.9555 217.138C77.7428 220.357 83.9827 222.684 90.4644 224.04C120.405 229.616 128.769 211.71 146.353 194.729C155.949 185.468 168.708 178.11 182.151 175.644C207.615 170.98 225.24 198.348 250.584 191.231C267.618 186.433 270.768 170.498 270.205 155.755C269.307 132.475 257.767 98.9423 234.085 88.0998C211.462 77.7532 185.407 79.214 164.66 64.324C160.042 61.2005 156.226 57.0311 153.523 52.1546C145.656 37.0099 147.76 -0.114758 122.148 0.193497C118.769 0.242565 115.409 0.692459 112.136 1.53374C107.346 2.80145 102.786 4.81881 98.6265 7.51116C92.7455 11.3336 87.4768 16.024 82.9992 21.4229C76.2711 29.4777 69.1544 37.9078 70.173 48.7504Z" fill="#91B3FA" fill-opacity="0.2"/>
<path fill-rule="evenodd" clip-rule="evenodd" d="M74.4592 147.901C82.6481 148.813 91.6412 154.737 95.1526 170.498C98.6641 186.259 93.8794 202.972 85.1276 205.143C76.3758 207.314 58.6041 213.868 46.1666 212.179C33.7291 210.491 29.4001 199.139 26.4784 192.076C23.5566 185.013 25.2855 175.993 28.6093 169.546C31.9332 163.1 40.9396 155.313 46.3944 153.061C56.5133 148.839 66.2703 146.99 74.4592 147.901Z" fill="#DFA158"/>
<path d="M39.9666 168.223L1.44141 187.372L19.7853 224.277L58.3105 205.128L39.9666 168.223Z" fill="#DFA158"/>
<path fill-rule="evenodd" clip-rule="evenodd" d="M163.465 143.586L126.836 148.947L128.806 163.85L159.632 156.988C160.837 156.719 161.91 156.035 162.662 155.055C163.414 154.075 163.798 152.861 163.746 151.627C163.626 148.116 163.465 143.586 163.465 143.586Z" fill="#DFA158"/>
<path fill-rule="evenodd" clip-rule="evenodd" d="M150.156 156.693L118.66 163.314L121.756 178.057L147.542 170.886C148.613 170.585 149.544 169.919 150.175 169.004C150.806 168.088 151.098 166.981 151 165.874C150.638 161.974 150.156 156.693 150.156 156.693Z" fill="#DFA158"/>
<path fill-rule="evenodd" clip-rule="evenodd" d="M138.201 169.734L106.598 175.845L109.064 188.591L135.105 182.037C136.042 181.804 136.872 181.259 137.459 180.492C138.045 179.725 138.354 178.781 138.335 177.815C138.281 174.425 138.201 169.734 138.201 169.734Z" fill="#DFA158"/>
<path d="M155.179 122.885L123.582 128.981L126.042 141.732L157.639 135.636L155.179 122.885Z" fill="#DFA158"/>
<path fill-rule="evenodd" clip-rule="evenodd" d="M116.409 103.66C116.863 103.116 117.514 102.774 118.22 102.708C118.926 102.643 119.629 102.86 120.175 103.312L159.806 136.147C160.416 136.656 160.8 137.387 160.873 138.178C160.946 138.969 160.702 139.757 160.195 140.369L98.4092 214.9C97.9003 215.51 97.1701 215.894 96.3787 215.967C95.5873 216.04 94.7993 215.796 94.1874 215.289L54.5295 182.439C53.9853 181.985 53.6431 181.334 53.5778 180.628C53.5125 179.923 53.7294 179.22 54.1811 178.673L116.409 103.66Z" fill="black"/>
<path fill-rule="evenodd" clip-rule="evenodd" d="M116.181 105.483C116.439 105.171 116.757 104.914 117.115 104.725C117.473 104.536 117.865 104.42 118.269 104.382C118.672 104.345 119.079 104.387 119.465 104.507C119.852 104.627 120.212 104.822 120.523 105.081L155.155 133.829C155.467 134.088 155.724 134.405 155.913 134.763C156.102 135.122 156.219 135.514 156.256 135.917C156.293 136.32 156.251 136.727 156.131 137.114C156.011 137.501 155.816 137.86 155.557 138.171L95.3936 210.732C95.1349 211.044 94.8174 211.301 94.4592 211.49C94.1009 211.679 93.7089 211.796 93.3057 211.833C92.9024 211.87 92.4957 211.828 92.1089 211.708C91.722 211.588 91.3626 211.393 91.0512 211.134L56.3656 182.373C56.0524 182.115 55.7934 181.798 55.6035 181.44C55.4136 181.081 55.2966 180.689 55.2592 180.285C55.2218 179.881 55.2648 179.474 55.3857 179.087C55.5065 178.7 55.703 178.341 55.9635 178.03L116.181 105.483Z" fill="#DFE4EB"/>
<path fill-rule="evenodd" clip-rule="evenodd" d="M130.401 111.782L144.943 123.844L142.812 126.417C142.618 126.654 142.339 126.803 142.035 126.833C141.73 126.864 141.427 126.772 141.19 126.578L128.418 115.99C128.182 115.796 128.032 115.517 128.002 115.213C127.972 114.909 128.063 114.605 128.257 114.368L130.401 111.782Z" fill="black"/>
<path fill-rule="evenodd" clip-rule="evenodd" d="M67.5839 156.733L89.5506 145.288C90.7293 144.667 91.668 143.671 92.2188 142.458C92.7696 141.245 92.9012 139.883 92.5929 138.587L90.5825 130.398L58.4166 139.552L33.0859 162.939L67.5839 156.733Z" fill="#DFA158"/>
<path d="M63.3242 166.772C64.1418 164.333 65.0397 161.934 65.8841 159.508C66.0712 158.522 66.3913 157.566 66.8357 156.667C67.0233 156.452 68.2563 156.332 68.5914 156.211C69.976 155.69 71.32 155.068 72.6121 154.348C77.1958 151.815 81.8598 149.416 86.4301 146.856C88.9095 145.516 91.6704 143.975 92.5952 141.08C93.52 138.185 91.9519 134.378 91.1612 131.698" stroke="black" stroke-width="1.34024" stroke-linejoin="round"/>
<path d="M54.25 175.376C55.4428 181.809 51.5695 189.61 46.4766 193.617" stroke="black" stroke-width="1.34024" stroke-linejoin="round"/>
<path d="M142.598 161.612C146.804 159.956 151.127 158.612 155.531 157.591C157.515 157.082 160.53 156.707 162.112 155.273C164.31 153.276 164.095 149.778 163.331 147.231" stroke="black" stroke-width="1.34024" stroke-linejoin="round"/>
<path d="M133.23 174.559C137.01 172.991 141.165 172.28 145.051 170.967C146.727 170.417 148.831 169.908 149.917 168.407C151.002 166.906 151.056 164.158 150.989 162.175" stroke="black" stroke-width="1.34024" stroke-linejoin="round"/>
<path d="M124.223 184.852C127.252 183.605 130.629 182.949 133.725 181.836C135.325 181.412 136.739 180.469 137.746 179.156C138.235 178.12 138.439 176.973 138.335 175.832" stroke="black" stroke-width="1.34024" stroke-linejoin="round"/>
<path d="M146.875 124.554C149.123 124.391 151.36 124.105 153.576 123.696C154.188 123.485 154.822 123.345 155.466 123.281C155.713 124.244 155.835 125.235 155.828 126.229C156.203 128.307 156.846 130.33 157.168 132.408" stroke="black" stroke-width="1.34024" stroke-linejoin="round"/>
<path d="M32.5742 207.073C36.9908 209.182 41.6695 210.692 46.486 211.563C57.4492 213.251 71.2002 210.37 81.2118 205.907" stroke="black" stroke-width="1.34024" stroke-linejoin="round"/>
<path d="M44.3719 211.563C37.148 216.481 29.0663 219.779 21.4805 224.041" stroke="black" stroke-width="1.34024" stroke-linejoin="round"/>
<path d="M26.1587 175.055C17.6214 178.526 9.57987 183.391 0.921875 186.527" stroke="black" stroke-width="1.34024" stroke-linejoin="round"/>
<path d="M109.562 93.1928C89.096 105.751 67.0489 74.0004 46.3555 99.0897" stroke="#279FF2" stroke-width="1.34024" stroke-linejoin="round"/>
<path d="M175.65 153.436C164.392 164.346 174.591 172.696 169.98 185.602" stroke="#279FF2" stroke-width="1.34024" stroke-linejoin="round"/>
<path d="M186.919 29.826C171.586 17.7638 187.066 13.676 190.765 1.60046" stroke="#279FF2" stroke-width="1.34024" stroke-linejoin="round"/>
<path d="M109.266 99.693C105.58 108.659 90.6098 106.622 84.6055 114.583" stroke="#A14DF6" stroke-width="1.34024" stroke-linejoin="round"/>
<path d="M185.339 33.3109C174.242 29.5314 171.441 20.4982 168.895 9.73608" stroke="#A14DF6" stroke-width="1.34024" stroke-linejoin="round"/>
<path d="M183.517 149.912C178.987 158.596 186.855 167.335 185.648 176.556" stroke="#A14DF6" stroke-width="1.34024" stroke-linejoin="round"/>
<path d="M78.7773 30.7509C79.0722 36.9562 80.1176 43.2286 80.2114 49.4205" stroke="#F56C2C" stroke-width="1.34024" stroke-linejoin="round"/>
<path d="M72.0859 39.2885C77.2727 38.9802 82.6739 40.0793 87.807 40.8432" stroke="#F56C2C" stroke-width="1.34024" stroke-linejoin="round"/>
<path d="M75.9727 34.2355C78.5861 37.8273 81.5213 41.312 83.9203 45.0647" stroke="#F56C2C" stroke-width="1.34024" stroke-linejoin="round"/>
<path d="M75.6523 45.2658C78.5875 40.9904 82.7288 37.4387 86.562 33.9675" stroke="#F56C2C" stroke-width="1.34024" stroke-linejoin="round"/>
<path d="M150.009 210.651C148.535 216.146 147.06 221.561 145.988 227.15" stroke="#F56C2C" stroke-width="1.34024" stroke-linejoin="round"/>
<path d="M140.926 217.312C145.875 217.612 150.777 218.443 155.548 219.792" stroke="#F56C2C" stroke-width="1.34024" stroke-linejoin="round"/>
<path d="M145.344 213.358C147.301 217.151 148.668 221.4 150.906 225.086" stroke="#F56C2C" stroke-width="1.34024" stroke-linejoin="round"/>
<path d="M224.555 29.2096C230.8 23.1651 239.297 26.6899 245.999 22.5084" stroke="#F56C2C" stroke-width="1.34024" stroke-linejoin="round"/>
<path d="M106.718 76.7751C100.821 76.9091 98.0596 70.8109 94.3203 67.2861" stroke="#F56C2C" stroke-width="1.34024" stroke-linejoin="round"/>
<path d="M182.766 140.195C185.754 138.761 190.512 137.89 191.598 142.112" stroke="#F56C2C" stroke-width="1.34024" stroke-linejoin="round"/>
<path fill-rule="evenodd" clip-rule="evenodd" d="M203.217 43.2421C212.143 44.4215 234.244 50.2918 246.186 58.9497C258.127 67.6077 268.407 76.8821 266.584 95.1362C264.976 111.219 242.54 123.496 225.184 125.493C207.828 127.49 192.066 127.838 180.956 120.842C169.845 113.846 181.13 79.1471 181.13 79.1471L198.312 59.0435C198.312 59.0435 203.124 43.2287 203.217 43.2421Z" fill="#DFA158"/>
<path fill-rule="evenodd" clip-rule="evenodd" d="M155.288 9.48141C154.842 8.92921 154.194 8.5768 153.488 8.50142C152.782 8.42604 152.075 8.63394 151.522 9.07943L107.468 44.7164C106.856 45.2217 106.466 45.9473 106.384 46.7369C106.301 47.5264 106.532 48.3169 107.026 48.9382L173.81 131.457C174.056 131.764 174.36 132.019 174.705 132.207C175.051 132.396 175.43 132.515 175.821 132.556C176.609 132.639 177.399 132.407 178.019 131.912L222.059 96.3022C222.611 95.8558 222.964 95.2085 223.039 94.5024C223.115 93.7963 222.907 93.089 222.461 92.5361L155.288 9.48141Z" fill="black"/>
<path fill-rule="evenodd" clip-rule="evenodd" d="M155.748 11.6661C155.186 10.973 154.372 10.5314 153.485 10.4384C152.598 10.3454 151.71 10.6086 151.017 11.1702L112.793 42.0896C112.1 42.6513 111.658 43.4652 111.565 44.3524C111.472 45.2396 111.735 46.1274 112.297 46.8205L176.964 126.752C177.241 127.097 177.583 127.383 177.971 127.595C178.359 127.807 178.785 127.94 179.224 127.987C179.663 128.034 180.108 127.995 180.532 127.87C180.956 127.746 181.351 127.539 181.695 127.262L219.919 96.3023C220.609 95.7385 221.048 94.9249 221.141 94.0388C221.234 93.1527 220.973 92.2657 220.415 91.5712L155.748 11.6661Z" fill="#C9E2BB"/>
<path fill-rule="evenodd" clip-rule="evenodd" d="M140.079 18.3538L123.996 31.3139L126.368 34.2356C126.561 34.4754 126.84 34.6297 127.146 34.6645C127.449 34.688 127.75 34.597 127.99 34.4098L142.223 22.8972C142.459 22.7034 142.609 22.4238 142.639 22.1199C142.655 21.9693 142.64 21.8171 142.597 21.6721C142.553 21.5272 142.481 21.3923 142.384 21.2756L140.079 18.3538Z" fill="black"/>
<path fill-rule="evenodd" clip-rule="evenodd" d="M203.11 43.2421L176.305 78.0884L183.663 84.6556C184.87 85.7384 186.416 86.3688 188.036 86.4397C189.656 86.5105 191.251 86.0174 192.549 85.0441L215.668 67.7149L203.11 43.2421Z" fill="#DFA158"/>
<path fill-rule="evenodd" clip-rule="evenodd" d="M168.451 107.024H154.352V114.302C154.35 114.844 154.455 115.382 154.662 115.883C154.869 116.385 155.173 116.841 155.557 117.224C155.94 117.608 156.396 117.912 156.898 118.119C157.399 118.326 157.937 118.431 158.48 118.43H168.451V107.024Z" fill="#DFA158"/>
<path d="M238.233 64.7358L232.531 114.468L295.22 121.655L300.921 71.9226L238.233 64.7358Z" fill="#DFA158"/>
<path fill-rule="evenodd" clip-rule="evenodd" d="M164.726 94.0237H141.285V104.344C141.283 104.936 141.399 105.523 141.624 106.071C141.85 106.619 142.181 107.117 142.599 107.536C143.018 107.956 143.515 108.289 144.062 108.516C144.609 108.743 145.196 108.86 145.788 108.86H164.726V94.0237Z" fill="#DFA158"/>
<path fill-rule="evenodd" clip-rule="evenodd" d="M156.674 81.908H132.777V90.3916C132.777 91.7175 133.304 92.9891 134.242 93.9266C135.179 94.8641 136.451 95.3907 137.776 95.3907H156.674V81.908Z" fill="#DFA158"/>
<path fill-rule="evenodd" clip-rule="evenodd" d="M143.11 70.2878H122.617V79.9242C122.617 80.9408 123.021 81.9158 123.74 82.6346C124.459 83.3535 125.434 83.7573 126.45 83.7573H143.11V70.2878Z" fill="#DFA158"/>
<path d="M128.793 83.5564C132.331 84.1461 136.164 83.6904 139.729 83.5564C140.601 83.5564 141.485 83.4627 142.41 83.4761C142.41 83.4761 143.16 83.4761 143.174 83.4761C143.187 83.4761 143.107 82.8863 143.107 82.6852C143.107 81.9883 143.107 81.3451 143.107 80.6214C143.107 79.4822 142.892 78.3832 142.852 77.2708C142.812 76.1584 142.986 75.1665 142.933 74.1077" stroke="black" stroke-width="1.34024" stroke-linejoin="round"/>
<path d="M138.59 95.4042C142.946 95.2567 147.288 95.4042 151.644 95.4042H155.249C155.733 95.4854 156.226 95.4854 156.71 95.4042C156.951 95.297 156.643 94.8815 156.643 94.6269C156.643 93.8227 156.643 93.0185 156.643 92.201C156.643 88.8102 156.067 85.406 156.067 82.0018" stroke="black" stroke-width="1.34024" stroke-linejoin="round"/>
<path d="M146.539 109.102C151.096 109.102 155.72 108.525 160.277 108.297C161.389 108.297 162.501 108.123 163.627 108.043C163.801 108.043 164.592 108.043 164.713 107.922C164.77 107.676 164.793 107.424 164.78 107.172C164.78 106.515 164.941 105.831 164.941 105.215C164.941 102.534 164.23 99.9342 164.297 97.2939" stroke="black" stroke-width="1.34024" stroke-linejoin="round"/>
<path d="M157.945 118.269C159.379 118.269 160.773 118.59 162.194 118.711C163.615 118.831 164.767 118.711 166.067 118.711C166.959 118.779 167.856 118.779 168.748 118.711C168.77 118.546 168.77 118.379 168.748 118.215C168.748 117.692 168.748 117.156 168.748 116.62C168.781 114.311 168.687 112.003 168.466 109.704" stroke="black" stroke-width="1.34024" stroke-linejoin="round"/>
<path d="M179.602 80.8624C181.103 82.3501 183.193 84.709 185.271 85.3121C188.518 86.0802 191.937 85.5512 194.8 83.8377C196.479 82.6513 198.09 81.3716 199.625 80.0046C204.569 76.432 209.213 72.4606 213.51 68.1301" stroke="black" stroke-width="1.34024" stroke-linejoin="round"/>
<path d="M224.836 81.6667C229.125 85.8885 233.521 90.8475 239.043 93.5146C242.028 94.8001 245.191 95.6225 248.424 95.9538" stroke="black" stroke-width="1.34024" stroke-linejoin="round"/>
<path d="M222.477 125.359C228.253 124.501 234.539 123.737 240.114 121.82C246.541 119.532 252.433 115.957 257.43 111.313C260.403 108.871 262.863 105.865 264.668 102.467" stroke="black" stroke-width="1.34024" stroke-linejoin="round"/>
<path d="M250.648 116.714C259.481 117.036 268.246 118.898 277.065 119.528" stroke="black" stroke-width="1.34024" stroke-linejoin="round"/>
<path d="M152.101 43.0275C148.777 45.6276 143.55 49.0318 142.357 53.3741C141.781 55.5587 142.21 59.231 145.158 59.2578C147.329 59.2578 148.924 57.8238 150.412 56.4031C152.597 54.2989 155.773 50.6133 158.815 49.7824C162.461 48.804 166.267 52.2618 164.176 55.9072C161.241 60.9331 155.304 64.2972 151.176 68.3715" stroke="#44A700" stroke-width="1.34024" stroke-linejoin="round"/>
<path d="M141.418 46.1102C148.052 52.9454 153.413 60.7589 159.619 67.956" stroke="#44A700" stroke-width="1.34024" stroke-linejoin="round"/>
<path d="M145.828 42.9202C149.277 46.4464 152.467 50.2178 155.371 54.2049C157.995 58.2062 160.869 62.0381 163.975 65.6775" stroke="#44A700" stroke-width="1.34024" stroke-linejoin="round"/>
<path d="M118.031 143.031C112.039 138.003 103.059 138.789 98.031 144.781C93.0029 150.773 93.7886 159.753 99.7807 164.781C105.773 169.809 114.753 169.023 119.781 163.031C124.809 157.039 124.023 148.059 118.031 143.031ZM116.203 155.766L104.863 156.759C104.583 156.783 104.303 156.697 104.086 156.514C103.868 156.332 103.735 156.071 103.71 155.791L103.215 150.131C103.164 149.551 103.602 149.029 104.182 148.979C104.762 148.928 105.284 149.366 105.335 149.946L105.737 154.546L116.018 153.646C116.598 153.596 117.12 154.034 117.17 154.614C117.221 155.194 116.792 155.705 116.203 155.766Z" fill="#2E3192"/>
</svg>
