<svg width="232" height="151" viewBox="0 0 232 151" fill="none" xmlns="http://www.w3.org/2000/svg">
<path fill-rule="evenodd" clip-rule="evenodd" d="M89.1584 11.2567C84.2966 13.2923 78.4096 15.8843 74.7779 19.6039C65.4642 29.1958 53.1632 52.3336 61.8764 65.4254C65.8303 71.371 73.1963 69.4526 78.5414 66.7727C87.3279 62.3795 94.3864 58.2645 104.608 57.8251C108.591 57.664 113.394 58.118 116.323 61.3398C121.595 67.3731 115.65 76.2768 112.252 81.534C106.248 90.7452 99.175 101.479 101.533 113.063C109.177 150.596 156.507 148.355 184.389 140.594C191.836 138.679 198.961 135.679 205.535 131.69C211.761 127.77 217.272 122.818 221.834 117.046C237.591 96.9104 234.355 63.7414 208.567 53.1244C200.307 49.7416 191.272 49.7562 182.529 48.9947C171.663 48.0282 160.197 45.8023 150.239 41.2041C147.041 39.7083 144.187 37.5677 141.856 34.9166C139.525 32.2655 137.768 29.1611 136.693 25.7984C135.009 21.0244 134.379 15.2253 130.484 11.5936C126.589 7.96183 121.17 7.00993 116.001 6.84884C112.008 6.74326 108.012 6.95381 104.051 7.47853C98.9481 8.10695 93.9442 9.37638 89.1584 11.2567Z" fill="#91B3FA" fill-opacity="0.2"/>
<path fill-rule="evenodd" clip-rule="evenodd" d="M219.402 28.4781L203.542 34.3357L198.095 26.4865L182.631 34.4236L176.773 27.8044L164.75 35.6976L158.717 27.3212L145.83 34.9215L142.066 27.4676L127.525 34.7165L126.134 27.0283C93.1989 56.0823 81.2933 97.3202 86.1844 145.075H180.082C174.152 100.923 188.825 62.4818 219.402 28.4781Z" fill="#D6DFF0"/>
<path d="M17.196 25.5485L6.6582 36.0312L12.5451 41.949L23.0828 31.4663L17.196 25.5485Z" fill="black"/>
<path d="M11.3092 19.6337L0.771484 30.1165L6.65835 36.0342L17.1961 25.5515L11.3092 19.6337Z" fill="#F56C2C"/>
<path fill-rule="evenodd" clip-rule="evenodd" d="M8.21875 40.1937L21.3985 27.1165L97.5479 103.603L104.665 124.822L84.2949 116.695L8.21875 40.1937Z" fill="#FFBA16"/>
<path fill-rule="evenodd" clip-rule="evenodd" d="M104.67 124.807L102.884 119.579L99.5156 122.801L104.67 124.807Z" fill="black"/>
<path fill-rule="evenodd" clip-rule="evenodd" d="M93.9641 108.508C93.578 108.63 93.164 108.63 92.7779 108.508C92.0897 108.391 91.3135 108.157 90.7424 108.098C90.4181 108.022 90.077 108.075 89.7905 108.245C89.6743 108.351 89.5846 108.484 89.5286 108.631C89.4727 108.779 89.452 108.937 89.4684 109.094C89.5563 109.941 89.6932 110.782 89.8784 111.613C89.8994 111.724 89.8994 111.839 89.8784 111.95C89.8784 111.95 89.8784 112.023 89.8784 112.038C89.541 112.181 89.1678 112.216 88.8094 112.14C88.1943 112.067 87.5207 111.906 86.9935 111.877C86.7017 111.843 86.4072 111.91 86.1588 112.067C85.9208 112.303 85.7413 112.592 85.6345 112.909C85.5277 113.227 85.4966 113.566 85.5437 113.898C85.6302 114.461 85.5902 115.036 85.4266 115.582C85.3544 115.726 85.2282 115.837 85.0751 115.889C85.0069 115.93 84.9328 115.959 84.8555 115.977V116.314H85.163C85.4209 116.233 85.6367 116.054 85.7634 115.816C85.9489 115.199 85.989 114.547 85.8806 113.912C85.8387 113.651 85.8565 113.383 85.9326 113.13C86.0087 112.876 86.1411 112.643 86.3199 112.448C86.5438 112.312 86.8121 112.27 87.0667 112.331C87.7111 112.331 88.5311 112.594 89.1755 112.609C89.461 112.621 89.7444 112.555 89.9956 112.418C90.0702 112.361 90.1283 112.284 90.1643 112.197C90.2002 112.109 90.2128 112.014 90.2006 111.921C90.2006 111.349 89.8345 110.28 89.7612 109.446C89.7612 109.065 89.7613 108.743 89.937 108.596C90.2196 108.487 90.533 108.487 90.8156 108.596C91.6024 108.795 92.3992 108.951 93.2026 109.065C93.5268 109.092 93.8518 109.026 94.1398 108.875C94.2005 108.834 94.2426 108.771 94.257 108.699C94.2832 108.5 94.2832 108.298 94.257 108.098C94.1838 107.234 93.9202 105.77 93.9055 105.697C93.8909 105.624 94.0227 105.096 93.9055 105.023C94.8845 105.02 95.8627 105.079 96.8344 105.199H96.9369H97.1712V104.95H96.9515H96.8636L95.5603 104.833C95.0145 104.789 94.466 104.789 93.9202 104.833C93.8543 104.833 93.7902 104.855 93.7375 104.894C93.6848 104.934 93.6461 104.989 93.6273 105.052C93.5902 105.32 93.5902 105.591 93.6273 105.858C93.6273 105.946 93.9641 107.835 93.9934 108.582C93.9495 108.362 93.9495 108.465 93.9641 108.508ZM93.9641 108.508C93.9641 108.508 93.9495 108.538 93.9495 108.508H93.9641Z" fill="black"/>
<path fill-rule="evenodd" clip-rule="evenodd" d="M91.1654 104.291C87.5922 100.322 83.8433 96.4125 80.1823 92.5757C71.3958 83.5988 62.4629 74.8416 53.8229 65.9233C47.1598 59.0698 40.6432 51.9674 33.819 45.1579C29.6894 40.999 25.589 37.0597 21.1958 33.2961C20.8004 32.9593 20.4197 32.6079 20.0243 32.3004L19.7314 32.066L19.541 32.2857L19.8193 32.5493L20.9908 33.5451C25.384 37.3087 29.499 41.2919 33.5847 45.3776C40.3796 52.1871 46.9255 59.2895 53.5886 66.143C62.2872 75.0613 71.2787 83.8038 79.948 92.7807C83.6823 96.6174 87.3726 100.513 90.9604 104.496L91.1654 104.291Z" fill="black"/>
<path fill-rule="evenodd" clip-rule="evenodd" d="M85.074 114.132C83.9925 113.175 82.9704 112.153 82.0134 111.071C79.7436 108.567 77.6202 105.799 75.4089 103.369C73.1976 100.938 71.0157 98.6678 68.7312 96.3394C65.363 92.8541 61.9656 89.4127 58.5535 85.9713C47.7169 75.0321 36.4702 64.5762 25.5603 53.7541C20.9035 49.112 16.2906 44.4112 11.8241 39.564L11.5605 39.7983C15.9538 44.6601 20.6253 49.3756 25.2967 54.0178C36.192 64.8544 47.4533 75.2957 58.3046 86.2349C61.7167 89.6763 65.1141 93.1176 68.5555 96.6029C70.7911 98.9167 73.017 101.255 75.2332 103.618C77.503 106.048 79.6264 108.802 81.867 111.276C82.8403 112.362 83.8822 113.384 84.9862 114.337L85.074 114.132Z" fill="black"/>
<path fill-rule="evenodd" clip-rule="evenodd" d="M36.5302 64.532C36.5302 64.6345 36.5302 64.7516 36.5302 64.8542C36.5302 64.9567 36.5302 65.191 36.5302 65.3667C36.5302 65.8207 36.4131 66.2746 36.3691 66.7432V67.329H36.6327L36.7206 66.7432C36.7206 66.2893 36.8378 65.8353 36.8963 65.3813C36.8963 65.2056 36.8963 65.0299 36.8963 64.8688V64.532H36.5302Z" fill="black"/>
<path fill-rule="evenodd" clip-rule="evenodd" d="M32.748 60.9735V61.5885C32.748 62.2475 32.748 62.8919 32.748 63.5509V64.0487H32.9091C32.9091 63.5508 32.9091 63.0237 32.9091 62.5843C32.9091 62.145 32.9091 61.8521 32.9091 61.5007C32.9091 61.1492 32.9091 61.1932 32.9091 61.0467L32.748 60.9735Z" fill="black"/>
<path fill-rule="evenodd" clip-rule="evenodd" d="M29.9853 57.9127V58.2788C29.9853 59.1574 29.8974 60.0214 29.8535 60.8854C29.8535 61.1051 29.8535 61.3248 29.8535 61.5445H30.1025C30.1025 61.3394 30.1025 61.1491 30.1757 60.9587C30.2489 60.7683 30.1757 60.3729 30.1757 60.08C30.1757 59.421 30.2635 58.7767 30.1757 58.1177C30.1757 58.1177 30.1757 57.9713 30.1757 57.8981L29.9853 57.9127Z" fill="black"/>
<path fill-rule="evenodd" clip-rule="evenodd" d="M27.0526 55.6432L26.9648 56.024C26.9584 56.1068 26.9584 56.19 26.9648 56.2729C26.8769 56.9465 26.8183 57.6201 26.7305 58.2791C26.7305 58.4402 26.7305 58.6013 26.7305 58.7624H27.0087C27.0513 58.5983 27.0855 58.4321 27.1112 58.2645C27.1645 58.018 27.2036 57.7686 27.2284 57.5176C27.2284 57.0197 27.3602 56.5072 27.3895 56.0532C27.3968 55.9264 27.3968 55.7993 27.3895 55.6725L27.0526 55.6432Z" fill="black"/>
<path fill-rule="evenodd" clip-rule="evenodd" d="M24.6552 53.4902C24.6552 53.6513 24.6552 53.8124 24.538 53.9735C24.4209 54.1346 24.538 54.3103 24.4648 54.4714C24.3916 54.6325 24.3623 55.1597 24.3184 55.5111C24.2744 55.8626 24.3184 55.8187 24.3184 55.9651H24.5819L24.6698 55.5843C24.6698 55.0571 24.8455 54.53 24.9041 54.0028V53.5049L24.6552 53.4902Z" fill="black"/>
<path fill-rule="evenodd" clip-rule="evenodd" d="M22.454 51.8795C22.4394 51.9471 22.4394 52.017 22.454 52.0846C22.3662 52.5385 22.3076 53.0071 22.2344 53.4611C22.2344 53.6661 22.2344 53.8711 22.2344 54.0761H22.498C22.498 53.8711 22.6005 53.6807 22.6298 53.4757C22.7323 53.0218 22.8201 52.5678 22.8787 52.0992C22.9 52.0325 22.9 51.9609 22.8787 51.8942L22.454 51.8795Z" fill="black"/>
<path fill-rule="evenodd" clip-rule="evenodd" d="M20.0829 49.2875C20.0531 49.3282 20.0284 49.3724 20.0097 49.4193C19.996 49.5262 19.996 49.6345 20.0097 49.7415C19.9218 50.1808 19.8632 50.6201 19.79 51.0594C19.79 51.2351 19.79 51.4255 19.7168 51.6159H19.9804L20.1122 51.0594C20.2 50.6201 20.2879 50.1808 20.3611 49.7561C20.3683 49.644 20.3683 49.5314 20.3611 49.4193C20.3539 49.3707 20.3539 49.3214 20.3611 49.2728L20.0829 49.2875Z" fill="black"/>
<path fill-rule="evenodd" clip-rule="evenodd" d="M18.0507 46.7688C18.0423 46.8271 18.0423 46.8862 18.0507 46.9445C18.0428 47.0811 18.0428 47.218 18.0507 47.3546C18.0507 47.9843 17.9336 48.614 17.9043 49.2583C17.9043 49.4048 17.9043 49.5805 17.9043 49.7416H18.1679C18.1679 49.5805 18.1679 49.4194 18.1679 49.2729C18.1679 48.6432 18.2997 47.9989 18.3583 47.3692C18.3583 47.2228 18.3583 47.091 18.3583 46.9592C18.3583 46.8274 18.3583 46.8274 18.3583 46.7688H18.0507Z" fill="black"/>
<path fill-rule="evenodd" clip-rule="evenodd" d="M16.1015 45.1284C16.1015 45.392 16.0283 45.6556 15.999 45.9046C15.999 46.3878 15.9258 46.8857 15.8965 47.369V47.7351H16.1601C16.1601 47.6472 16.1601 47.5594 16.1601 47.4715C16.1601 47.1347 16.1601 46.7832 16.2626 46.4317V45.7728C16.2626 45.5531 16.2626 45.3481 16.2626 45.1138L16.1015 45.1284Z" fill="black"/>
<path fill-rule="evenodd" clip-rule="evenodd" d="M14.2851 42.5657C14.2764 42.5993 14.2764 42.6346 14.2851 42.6682C14.278 42.7461 14.278 42.8245 14.2851 42.9025C14.2851 43.7079 14.2119 44.528 14.168 45.3334C14.168 45.5384 14.168 45.7435 14.168 45.9485H14.4755C14.4755 45.7874 14.4755 45.6117 14.4755 45.4506C14.4755 45.0405 14.4755 44.6451 14.5487 44.2498C14.6219 43.8544 14.5487 43.3418 14.5487 42.9025V42.6682C14.5422 42.6294 14.5422 42.5898 14.5487 42.551L14.2851 42.5657Z" fill="black"/>
<path fill-rule="evenodd" clip-rule="evenodd" d="M12.0155 40.6769V40.9991C12.0155 41.4823 12.0155 41.9656 11.9423 42.4635C11.869 42.9614 11.9423 43.2396 11.8398 43.635C11.8321 43.7325 11.8321 43.8304 11.8398 43.9279H12.1619C12.1619 43.8254 12.1619 43.7229 12.1619 43.6057C12.2185 43.1733 12.2527 42.7383 12.2644 42.3024C12.2864 41.922 12.2864 41.5406 12.2644 41.1601C12.2644 40.9844 12.2644 40.8233 12.2644 40.6622L12.0155 40.6769Z" fill="black"/>
<path fill-rule="evenodd" clip-rule="evenodd" d="M0.694943 30.0451C0.929249 29.884 1.44179 29.5326 1.50037 29.474C1.86647 29.1958 2.24722 28.9029 2.59868 28.61C2.95014 28.3171 3.08193 28.2 3.30159 27.9803C4.45848 26.8966 5.46892 25.6665 6.56723 24.5243C7.03021 24.044 7.51907 23.5894 8.03164 23.1624L7.79734 22.8842C7.28299 23.3454 6.79413 23.8342 6.33293 24.3486C5.23462 25.4762 4.22417 26.7063 3.09658 27.8046L2.4083 28.405L1.30999 29.2836L0.489926 29.8694H0.402059C0.378253 29.8983 0.365234 29.9345 0.365234 29.9719C0.365234 30.0093 0.378253 30.0456 0.402059 30.0744C0.540746 30.33 0.718635 30.5622 0.929248 30.7627C1.39786 31.2313 2.02756 31.6853 2.39366 32.0074L6.09862 35.3903L6.25971 35.5221L6.55259 35.7271L6.71368 35.5367C6.71368 35.4488 6.58188 35.361 6.49401 35.2731L6.33293 35.1413L2.61332 31.7585C2.26187 31.4363 1.63217 31.0117 1.14891 30.5284C0.975845 30.3892 0.823047 30.2265 0.694943 30.0451Z" fill="black"/>
<path fill-rule="evenodd" clip-rule="evenodd" d="M156.844 112.316C154.091 112.008 151.305 112.157 148.6 112.755C146.762 113.173 145.051 114.021 143.606 115.23C142.321 116.299 141.493 117.818 141.292 119.477C141.26 120.051 141.378 120.623 141.635 121.136C141.892 121.65 142.279 122.088 142.757 122.406C143.381 122.852 144.105 123.139 144.866 123.241C145.955 123.365 147.056 123.365 148.146 123.241C149.932 123.138 152.026 122.816 154.003 122.816C155.28 122.777 156.552 122.98 157.752 123.416C158.537 123.737 159.203 124.291 159.661 125.004C160.12 125.717 160.348 126.553 160.315 127.4C160.362 128.228 160.144 129.05 159.694 129.747C159.244 130.445 158.585 130.981 157.811 131.28C156.306 131.785 154.726 132.027 153.139 131.998C149.757 131.998 146.33 131.119 142.889 131.178C142.508 131.178 142.127 131.178 141.746 131.251V131.851H142.859C146.242 131.939 149.669 132.686 153.11 132.671C154.777 132.699 156.436 132.441 158.016 131.91C158.921 131.559 159.691 130.931 160.217 130.116C160.743 129.3 160.998 128.339 160.945 127.37C160.972 126.399 160.708 125.442 160.186 124.622C159.663 123.802 158.908 123.158 158.016 122.772C156.731 122.306 155.37 122.087 154.003 122.128C151.968 122.128 149.845 122.45 148.058 122.567C147.017 122.684 145.965 122.684 144.924 122.567C144.271 122.481 143.649 122.24 143.108 121.864C142.719 121.606 142.403 121.252 142.19 120.837C141.978 120.421 141.875 119.958 141.893 119.492C142.076 118.016 142.815 116.665 143.958 115.714C145.32 114.57 146.937 113.771 148.673 113.385C151.298 112.753 154.01 112.56 156.698 112.814L156.844 112.316Z" fill="#4C6590"/>
<path fill-rule="evenodd" clip-rule="evenodd" d="M147.974 109.387C147.974 109.695 147.974 110.002 147.886 110.324C147.71 113.165 147.666 116.006 147.607 118.847C147.607 120.971 147.607 123.079 147.607 125.188C147.607 126.565 147.783 127.941 147.944 129.318C148.164 131.163 148.369 133.008 148.662 134.824L148.794 135.439L149.379 135.366C149.379 135.293 149.379 135.219 149.379 135.146C149.395 134.981 149.395 134.814 149.379 134.648C149.13 132.51 148.808 130.372 148.589 128.22C148.486 127.209 148.413 126.184 148.369 125.159C148.369 123.592 148.369 122.025 148.369 120.444C148.369 117.515 148.515 114.586 148.574 111.657C148.574 111.291 148.574 110.925 148.574 110.559C148.574 110.193 148.574 109.812 148.574 109.446L147.974 109.387Z" fill="#4C6590"/>
<path fill-rule="evenodd" clip-rule="evenodd" d="M152.219 109.358C152.219 112.638 152.365 115.918 152.556 119.184C152.746 122.45 153.024 125.73 153.317 128.996C153.478 130.738 153.405 132.554 153.551 134.326C153.551 134.736 153.625 135.146 153.698 135.542C153.698 135.542 153.698 135.615 153.698 135.644L154.313 135.542C154.313 135.542 154.313 135.424 154.313 135.366C154.24 134.78 154.181 134.194 154.152 133.608C154.064 132.042 154.152 130.46 153.947 128.922C153.654 125.671 153.405 122.406 153.171 119.14C152.936 115.874 152.746 112.609 152.629 109.343L152.219 109.358Z" fill="#4C6590"/>
<path fill-rule="evenodd" clip-rule="evenodd" d="M119.227 43.6204C121.716 43.6204 124.162 43.884 126.549 44.1036C128.936 44.3233 131.425 44.6015 133.871 44.8798C145.264 46.1245 156.598 47.6915 167.977 49.0241C170.818 49.3462 173.673 49.6391 176.514 49.932L176.602 49.0973L171.506 48.4383L151.004 45.8902C145.322 45.2019 139.64 44.5283 133.944 43.9132C131.015 43.6057 128.013 43.2689 125.07 43.0639C123.093 42.9175 121.116 42.8589 119.109 42.8442L119.227 43.6204Z" fill="#A7B2D0"/>
<path fill-rule="evenodd" clip-rule="evenodd" d="M111.873 53.9736C115.739 54.4862 119.634 54.8816 123.5 55.4381C125.155 55.6577 126.81 55.8774 128.465 56.1557C131.935 56.7268 135.406 57.3711 138.877 57.9276C141.191 58.3083 143.519 58.6452 145.877 58.9088C149.054 59.2602 152.232 59.5677 155.425 59.802C158.617 60.0363 161.809 60.2414 165.002 60.4171V59.5677C161.194 59.3041 157.377 59.0064 153.55 58.6744C151.017 58.4548 148.469 58.2058 145.935 57.9129C143.402 57.62 141.293 57.3125 138.994 56.9318C135.523 56.3607 132.053 55.731 128.582 55.1452C126.371 54.7791 124.189 54.4862 121.919 54.2519C118.58 53.8858 115.241 53.6369 111.917 53.2708L111.873 53.9736Z" fill="#A7B2D0"/>
<path fill-rule="evenodd" clip-rule="evenodd" d="M109.355 61.1495L109.824 61.2959L110.556 61.3838C112.138 61.5449 113.734 61.5888 115.301 61.8231C120.251 62.5358 125.21 63.1459 130.179 63.6536C134.163 64.049 138.146 64.4298 142.129 64.6348L145.058 64.7373V63.9318L142.129 63.6829C138.146 63.39 134.177 63.1117 130.209 62.7164C125.244 62.2331 120.295 61.6181 115.36 60.9005C113.588 60.6369 111.786 60.5051 110 60.3879H109.399L109.355 61.1495Z" fill="#A7B2D0"/>
<path fill-rule="evenodd" clip-rule="evenodd" d="M98.8125 86.3957C100.985 87.4406 103.395 87.8904 105.798 87.699C111.128 87.4208 116.883 85.0923 121.804 84.8434C123.249 84.7789 124.696 84.902 126.109 85.2095C129.492 85.9124 132.67 87.3475 136.14 87.9772C137.263 88.1679 138.4 88.2562 139.538 88.2408C142.115 88.2408 144.751 87.8747 147.27 87.8747V86.9961C144.751 86.9961 142.101 87.2304 139.523 87.2157C138.449 87.2171 137.376 87.1289 136.316 86.9522C132.845 86.3517 129.668 84.9313 126.285 84.2576C124.789 83.9423 123.258 83.8193 121.731 83.8915C116.81 84.1991 111.07 86.5861 105.739 86.8204C103.479 87.0237 101.205 86.6245 99.1493 85.6635L98.8125 86.3957Z" fill="#A7B2D0"/>
<path fill-rule="evenodd" clip-rule="evenodd" d="M105.02 71.4881C107.631 73.829 110.988 75.1677 114.494 75.2663C119.429 75.6031 124.745 74.3877 129.71 74.5634C131.198 74.6427 132.672 74.8933 134.103 75.3102C136.329 75.9253 138.496 76.7747 140.78 77.419C142.311 77.8272 143.874 78.1015 145.452 78.2391C147.795 78.4734 150.167 78.488 152.466 78.6052V77.7265C150.182 77.5508 147.824 77.463 145.496 77.214C143.975 77.0574 142.467 76.7882 140.986 76.4085C138.306 75.6617 135.831 74.6073 133.18 73.9923C132.013 73.7165 130.821 73.5595 129.622 73.5236C124.672 73.3919 119.371 74.6512 114.436 74.3876C111.113 74.3345 107.916 73.1048 105.415 70.917L105.02 71.4881Z" fill="#A7B2D0"/>
<path fill-rule="evenodd" clip-rule="evenodd" d="M117.514 102.211C117.938 102.211 118.334 102.211 118.744 102.211C122.419 101.992 126.066 101.523 129.741 101.274C132.451 101.084 135.16 100.952 137.884 100.908C141.545 100.835 145.206 101.084 148.94 101.054C150.536 101.054 152.132 100.981 153.699 100.835V99.9561C152.132 100.059 150.565 100.059 148.999 100.059C145.308 100.059 141.589 99.8536 137.928 99.9268C134.501 99.9268 131.089 100.19 127.677 100.469C124.616 100.703 121.541 100.879 118.509 101.303C118.158 101.303 117.821 101.421 117.484 101.479L117.514 102.211Z" fill="#A7B2D0"/>
<path fill-rule="evenodd" clip-rule="evenodd" d="M189.601 136.186C189.438 136.371 189.286 136.567 189.148 136.772C189.06 136.918 188.986 137.065 188.913 137.211C188.122 138.676 187.376 140.14 186.643 141.604C185.267 144.357 183.978 147.169 182.719 149.937L183.334 150.215C184.403 147.916 185.501 145.602 186.629 143.303C187.639 141.238 188.796 139.247 189.763 137.182C189.865 136.948 189.953 136.699 190.041 136.464L189.601 136.186Z" fill="#F56C2C"/>
<path fill-rule="evenodd" clip-rule="evenodd" d="M181.346 137.723C181.726 138.177 182.093 138.646 182.473 139.115C183.938 140.945 185.519 142.849 187.159 144.592C188.063 145.557 189.042 146.448 190.088 147.257L190.498 146.744C189.518 145.933 188.603 145.047 187.76 144.094C186.134 142.336 184.685 140.374 183.074 138.631C182.649 138.192 182.21 137.782 181.77 137.372L181.346 137.723Z" fill="#F56C2C"/>
<path fill-rule="evenodd" clip-rule="evenodd" d="M185.989 137.562C185.989 138.412 185.916 139.261 185.916 140.096C185.916 140.667 185.916 141.238 185.916 141.795C186.019 143.903 186.209 146.012 186.355 148.121H187C186.883 146.364 186.751 144.606 186.648 142.864C186.648 141.985 186.648 141.106 186.546 140.228C186.443 139.349 186.458 138.485 186.443 137.606L185.989 137.562Z" fill="#F56C2C"/>
<path fill-rule="evenodd" clip-rule="evenodd" d="M181.666 143.742C181.754 143.742 181.783 143.86 181.886 143.889H182.076C183.335 143.889 184.566 143.772 185.81 143.669C187.45 143.537 189.091 143.376 190.731 143.142C191.141 143.142 191.551 142.996 191.946 142.922V142.366L190.101 142.498C187.641 142.717 185.195 142.937 182.779 143.039C182.507 143.002 182.231 143.002 181.959 143.039C181.856 143.039 181.842 143.127 181.754 143.186L181.666 143.742Z" fill="#F56C2C"/>
<path fill-rule="evenodd" clip-rule="evenodd" d="M104.668 0.81543C104.449 1.21082 104.214 1.59155 104.009 1.98694C103.189 3.58316 102.545 5.22331 101.798 6.84881C101.051 8.47431 100.583 9.70442 100.041 11.2421C99.8065 11.8571 99.6015 12.5015 99.3965 13.1312L99.9383 13.3362C100.187 12.7211 100.466 12.1061 100.714 11.5056C101.3 10.0412 101.857 8.57684 102.472 7.18564C103.087 5.79445 103.936 3.97858 104.639 2.33843C104.815 1.9284 104.961 1.51837 105.137 1.10833L104.668 0.81543Z" fill="#F56C2C"/>
<path fill-rule="evenodd" clip-rule="evenodd" d="M95.3398 3.67101L95.7499 3.99318C96.9946 4.79861 98.3858 5.45759 99.6745 6.23373C101.827 7.55171 103.951 8.97219 106.074 10.3048L106.44 9.71905L104.229 8.25463C102.515 7.11239 100.773 5.9701 99.0009 4.91572C98.1076 4.40318 97.2143 3.90528 96.3064 3.45131C96.218 3.39867 96.1248 3.35455 96.0281 3.31952C95.8803 3.27149 95.7283 3.23721 95.5742 3.21704L95.3398 3.67101Z" fill="#F56C2C"/>
<path fill-rule="evenodd" clip-rule="evenodd" d="M99.9512 0.229624V0.507867C99.9512 1.29865 100.229 2.0748 100.376 2.85094C100.844 5.28187 101.386 7.69815 101.84 10.173C102.045 11.1981 102.28 12.2378 102.455 13.2629L103.202 13.175C103.056 12.2964 102.924 11.4324 102.763 10.5537C102.162 7.44917 101.386 4.35928 100.815 1.24007C100.786 0.927622 100.727 0.618664 100.639 0.317486C100.647 0.283735 100.647 0.248717 100.639 0.214966L99.9512 0.229624Z" fill="#F56C2C"/>
<path fill-rule="evenodd" clip-rule="evenodd" d="M97.9306 10.0411C98.5456 9.68964 99.19 9.36749 99.8197 9.01603C100.742 8.50349 101.65 7.947 102.602 7.4491C103.876 6.77547 105.165 6.14576 106.453 5.55999L106.834 5.38427L107.391 5.03282L107.2 4.57886L106.571 4.72531C104.727 5.38771 102.948 6.21607 101.255 7.20017C100.48 7.59537 99.7314 8.04048 99.0142 8.53275C98.531 8.86957 98.0917 9.25035 97.6523 9.61645L97.9306 10.0411Z" fill="#F56C2C"/>
<path fill-rule="evenodd" clip-rule="evenodd" d="M222.317 86.996C222.472 87.7457 222.585 88.5035 222.654 89.2659C222.788 90.4078 222.828 91.5589 222.771 92.7073C222.65 94.6258 222.346 96.5284 221.863 98.3892L222.434 98.5356C223.078 96.2611 223.427 93.9136 223.474 91.5504C223.484 90.757 223.435 89.9641 223.328 89.178C223.213 88.3954 223.042 87.6221 222.815 86.8643L222.317 86.996Z" fill="#F56C2C"/>
<path fill-rule="evenodd" clip-rule="evenodd" d="M69.1691 24.6707C68.8067 25.2286 68.4743 25.8054 68.1733 26.3987C67.468 27.8073 66.9746 29.3123 66.7089 30.8651C66.3268 33.0915 66.5132 35.3784 67.2507 37.5136L67.8658 37.3086C67.1927 35.2694 67.0466 33.0931 67.4411 30.9823C67.7612 29.5095 68.2527 28.0793 68.9055 26.7208C69.1398 26.1204 69.3741 25.52 69.6524 24.9196L69.1691 24.6707Z" fill="#F56C2C"/>
<path fill-rule="evenodd" clip-rule="evenodd" d="M183.838 103.515H183.999C184.102 103.515 184.146 103.354 184.219 103.281C185.178 102.252 186.19 101.275 187.25 100.352C188.715 99.1364 190.179 98.0527 191.644 96.9105L192.756 96.0318L192.42 95.5486L191.234 96.3247C189.671 97.408 188.166 98.5713 186.723 99.81C185.629 100.711 184.601 101.69 183.648 102.739C183.556 102.804 183.481 102.889 183.428 102.988C183.415 103.041 183.415 103.096 183.428 103.149L183.838 103.515Z" fill="#A14DF6"/>
<path fill-rule="evenodd" clip-rule="evenodd" d="M87.5963 74.1386C87.4938 73.4796 87.406 72.8352 87.2742 72.1763C86.9667 70.7118 86.5566 69.2474 86.1173 67.783C85.4736 65.675 84.6708 63.6189 83.7157 61.6324L83.1738 61.896C83.8846 63.4755 84.5055 65.0938 85.0336 66.7432C85.5755 68.4859 86.0148 70.2579 86.498 72.0298C86.6884 72.7913 86.9081 73.4942 87.1131 74.2996L87.5963 74.1386Z" fill="#A14DF6"/>
<path fill-rule="evenodd" clip-rule="evenodd" d="M99.3245 49.9319C99.3627 49.8332 99.3873 49.7297 99.3977 49.6244C99.4049 49.5318 99.4049 49.4387 99.3977 49.3461C99.1927 47.6474 98.9291 45.9487 98.6655 44.2646C98.4019 42.5805 97.9919 40.5303 97.5672 38.6559L96.9082 38.8023C97.6404 42.1558 98.0944 45.5094 98.5776 48.8922C98.5879 49.1592 98.6272 49.4244 98.6948 49.6829C98.7337 49.7925 98.7879 49.8961 98.8559 49.9905L99.3245 49.9319Z" fill="#ADDD1C"/>
<path fill-rule="evenodd" clip-rule="evenodd" d="M196.749 73.6555L197.613 73.2602C198.741 72.7037 199.868 72.1472 201.025 71.7079C203.251 70.8878 205.55 70.3313 207.864 69.7163L207.732 69.1891C205.374 69.7602 203.046 70.2728 200.791 71.0635C199.559 71.4568 198.375 71.9873 197.261 72.6451C196.983 72.8208 196.734 73.0259 196.471 73.2309L196.749 73.6555Z" fill="#ADDD1C"/>
<path fill-rule="evenodd" clip-rule="evenodd" d="M85.8963 145.309C85.8963 145.002 85.8963 144.386 85.8963 144.299C85.8963 143.742 85.7791 143.186 85.7498 142.629C85.7498 141.794 85.7498 140.945 85.662 140.096C85.662 138.441 85.662 136.771 85.662 135.117C85.662 131.617 85.662 128.102 85.7791 124.617C85.8011 124.305 85.8011 123.992 85.7791 123.68C85.7566 123.599 85.7272 123.521 85.6913 123.445H85.4423C85.4043 123.51 85.3748 123.579 85.3544 123.65C85.3544 123.841 85.3544 124.031 85.3544 124.236C85.3544 126.726 85.2373 129.23 85.1934 131.734C85.1934 134.516 85.1934 137.299 85.1934 140.066C85.1934 140.916 85.1934 141.765 85.2959 142.615C85.2959 143.186 85.3837 143.742 85.4423 144.313C85.4423 144.401 85.4423 145.104 85.5302 145.382C85.5335 145.436 85.5335 145.49 85.5302 145.543C85.5437 145.583 85.5668 145.618 85.5975 145.646C85.6282 145.674 85.6655 145.694 85.7059 145.704C86.1183 145.769 86.5383 145.769 86.9507 145.704C87.8252 145.505 88.7101 145.353 89.6012 145.25C90.5238 145.25 91.461 145.25 92.3836 145.25C94.551 145.25 96.7769 145.455 98.9003 145.529C104.846 145.734 110.806 146.071 116.766 146.188C120.749 146.276 124.732 146.188 128.701 146.012C132.435 145.792 136.155 145.28 139.889 144.928C141.163 144.811 142.452 144.723 143.726 144.65L144.678 144.577V144.255C144.356 144.255 144.033 144.255 143.711 144.255C142.437 144.255 141.149 144.372 139.86 144.489C136.14 144.811 132.421 145.353 128.701 145.573C124.732 145.807 120.764 145.836 116.795 145.763C110.835 145.646 104.875 145.309 98.9296 145.104C97.0697 145.104 95.2099 144.928 93.3355 144.87C92.0907 144.87 90.846 144.782 89.6012 144.87C88.6903 144.962 87.7856 145.109 86.8921 145.309C86.5615 145.351 86.2269 145.351 85.8963 145.309Z" fill="black"/>
<path fill-rule="evenodd" clip-rule="evenodd" d="M127.687 34.8191C127.629 34.6784 127.59 34.5307 127.57 34.3798C127.57 33.9551 127.438 33.4864 127.409 33.3107C127.013 31.7291 126.721 30.1329 126.413 28.5367C126.416 28.3699 126.381 28.2047 126.31 28.0535H126.047C126.047 28.0535 126.047 28.156 126.047 28.2145C126.164 28.8589 126.267 29.4886 126.384 30.1329C126.574 31.2019 126.779 32.271 127.028 33.34C127.028 33.545 127.131 34.1308 127.233 34.5701C127.27 34.7845 127.361 34.986 127.497 35.1559C127.548 35.1962 127.607 35.2238 127.671 35.2366C127.735 35.2493 127.8 35.2467 127.863 35.2291C128.092 35.1658 128.317 35.0875 128.536 34.9948C128.825 34.8918 129.104 34.7645 129.371 34.6141C129.766 34.3944 130.162 34.1308 130.528 33.8819C131.841 32.965 133.205 32.124 134.614 31.3631C135.741 30.7626 136.898 30.2208 138.07 29.6936L138.948 29.3128L138.787 28.9175L137.894 29.2836C136.708 29.7815 135.551 30.3672 134.409 30.9823C132.988 31.7546 131.614 32.6104 130.294 33.545C130.001 33.75 129.693 33.9551 129.371 34.1454C129.058 34.3262 128.73 34.4781 128.39 34.5994C128.39 34.5994 127.79 34.6873 127.687 34.8191Z" fill="black"/>
<path fill-rule="evenodd" clip-rule="evenodd" d="M146.29 34.8483L146.07 34.5408L145.499 33.5304C145.031 32.681 144.547 31.8317 144.108 30.9676C144.085 30.9063 144.055 30.8474 144.02 30.7919C143.988 30.7547 143.948 30.7248 143.903 30.7041L143.683 30.8212C143.676 30.8648 143.676 30.9094 143.683 30.953C143.738 31.1201 143.816 31.278 143.918 31.4216C144.313 32.1978 144.738 32.9593 145.148 33.7208L145.763 34.7312L146.07 35.1852H146.349C146.738 34.8045 147.171 34.4704 147.637 34.1894C148.34 33.7501 149.102 33.3986 149.834 33.0032C150.917 32.4321 151.986 31.8317 153.085 31.2605L154.549 30.543L154.403 30.2208C153.758 30.5284 153.129 30.8359 152.499 31.1727C151.562 31.6559 150.639 32.1685 149.717 32.6371C148.794 33.1057 148.252 33.3986 147.505 33.8525C147.068 34.1431 146.661 34.4767 146.29 34.8483Z" fill="black"/>
<path fill-rule="evenodd" clip-rule="evenodd" d="M164.972 35.5368L164.753 35.2585L163.61 33.6916L163.391 33.8234L163.991 34.8485L164.445 35.4928L164.738 35.8882C164.773 35.9342 164.822 35.9666 164.879 35.9799C164.935 35.9933 164.994 35.9867 165.045 35.9614C165.909 35.2878 166.832 34.6728 167.784 34.0723C169.995 32.6958 172.353 31.4804 174.52 30.1184L175.37 29.562L176.629 28.698C176.702 28.698 177.01 28.3758 177.185 28.2733C177.254 28.354 177.313 28.4425 177.361 28.5369C177.581 28.903 177.8 29.4009 177.918 29.5912C178.191 30.0202 178.505 30.4223 178.855 30.7921C179.382 31.3485 179.953 31.8611 180.451 32.3736L180.715 32.1247C180.217 31.5975 179.66 31.0703 179.148 30.5285C178.821 30.1716 178.522 29.7897 178.254 29.3862C178.123 29.1666 177.844 28.5369 177.61 28.1854C177.526 28.0555 177.41 27.9495 177.273 27.8779C177.197 27.8522 177.115 27.8522 177.039 27.8779C176.863 27.9804 176.497 28.3025 176.409 28.3465C175.999 28.6394 175.589 28.9323 175.164 29.2105L174.315 29.767C172.148 31.1289 169.79 32.359 167.579 33.7356C166.686 34.3213 165.807 34.9071 164.972 35.5368Z" fill="black"/>
<path fill-rule="evenodd" clip-rule="evenodd" d="M219.097 28.6978C219.06 28.7242 219.03 28.7595 219.009 28.8003C218.863 28.9907 218.702 29.181 218.541 29.3568C218.379 29.5325 217.999 29.8839 217.735 30.1329C216.759 31.0115 215.866 31.9049 215.055 32.8128C214.191 33.7354 213.357 34.6872 212.566 35.7416C210.384 38.4654 208.275 41.3064 206.254 44.2206C205.244 45.685 204.248 47.1494 203.325 48.6138C202.403 50.0783 201.436 51.5427 200.543 53.1242L200.792 53.2707C201.7 51.8063 202.652 50.3418 203.618 48.8774C204.585 47.413 205.566 45.9486 206.547 44.4842C208.553 41.5554 210.662 38.7437 212.844 36.0199C213.635 35.0241 214.455 34.0868 215.319 33.1789C216.183 32.271 217.062 31.3923 217.999 30.5283C218.262 30.2647 218.555 30.0011 218.804 29.7229C219.053 29.4446 219.141 29.3275 219.302 29.1078C219.431 28.9818 219.549 28.8446 219.654 28.6978C219.685 28.6552 219.701 28.604 219.701 28.5513C219.701 28.4987 219.685 28.4474 219.654 28.4049C219.615 28.3856 219.572 28.3755 219.529 28.3755C219.486 28.3755 219.443 28.3856 219.405 28.4049C219.147 28.4748 218.893 28.5579 218.643 28.6539L217.179 29.0932L215.714 29.5765C213.723 30.2501 211.746 31.0409 209.783 31.7731C207.821 32.5053 206.24 33.2375 204.497 33.955L204.16 34.1015L203.94 34.2333L204.028 34.4676C204.133 34.4451 204.235 34.4157 204.336 34.3797L204.746 34.204C206.825 33.3253 208.934 32.432 211.072 31.612C212.654 30.9969 214.235 30.4258 215.817 29.8986L217.281 29.4153L218.746 28.976L219.097 28.6978Z" fill="black"/>
<path fill-rule="evenodd" clip-rule="evenodd" d="M182.634 34.702L183.044 34.4677C184.376 33.7355 185.724 33.0033 187.071 32.315C189.326 31.1581 191.625 30.0305 193.88 28.8883C194.818 28.4196 195.755 27.8192 196.707 27.3213C197.106 27.1029 197.522 26.9168 197.951 26.7648L197.864 26.5159C197.42 26.6676 196.989 26.8536 196.575 27.0724C195.608 27.5556 194.7 28.156 193.763 28.6246C191.479 29.7669 189.194 30.8945 186.939 32.0514C185.577 32.7543 184.215 33.5158 182.868 34.1748L182.473 34.3944L182.634 34.702Z" fill="black"/>
<path fill-rule="evenodd" clip-rule="evenodd" d="M192.008 119.257C192.008 119.257 192.008 119.096 192.008 119.008C191.818 118.202 191.725 117.377 191.73 116.548C191.738 115.62 191.821 114.695 191.979 113.781C192.092 113.139 192.253 112.508 192.462 111.891C192.667 111.283 192.927 110.695 193.239 110.134C194.703 107.498 196.372 106.458 198.174 106.268C200.575 106.019 203.197 107.191 205.803 108.025C208.41 108.86 211.353 109.402 213.887 107.718C215.289 106.78 216.275 105.338 216.64 103.691C217.054 101.493 217.109 99.2427 216.801 97.0276C216.603 95.5715 216.5 94.1039 216.493 92.6344H215.849C215.78 93.6095 215.78 94.5882 215.849 95.5632C216.096 97.7114 216.174 99.8755 216.083 102.036C216.062 103.022 215.812 103.989 215.352 104.861C214.892 105.733 214.235 106.485 213.433 107.059C211.119 108.611 208.586 108.084 206.038 107.293C203.489 106.502 200.59 105.272 198.1 105.536C196.094 105.756 194.22 106.883 192.609 109.812C192.28 110.416 192.005 111.048 191.789 111.701C191.571 112.35 191.409 113.016 191.306 113.693C191.096 114.832 191.017 115.992 191.071 117.149C191.091 117.856 191.195 118.559 191.379 119.243C191.379 119.243 191.379 119.375 191.379 119.419C191.379 119.462 191.379 119.419 191.452 119.419L192.008 119.257Z" fill="#279FF2"/>
<path fill-rule="evenodd" clip-rule="evenodd" d="M91.4906 55.6431C91.4906 55.6431 91.5784 55.6431 91.6224 55.5553C91.6224 55.3649 91.6224 55.1599 91.6224 54.9549C91.9589 52.6484 91.9589 50.3053 91.6224 47.9989C91.2928 46.2322 90.4169 44.6136 89.1182 43.3713C87.0009 41.7124 84.4676 40.6687 81.7962 40.3546C79.2551 40.0467 76.7816 39.3245 74.4741 38.2166C73.5663 37.6765 72.8012 36.9265 72.2432 36.0295C71.6852 35.1326 71.3504 34.1149 71.267 33.0618C71.2159 32.5212 71.2159 31.977 71.267 31.4364C71.3108 30.8931 71.399 30.3544 71.5306 29.8255C71.669 29.2534 71.8704 28.6984 72.131 28.1707C72.3989 27.6587 72.7075 27.169 73.0536 26.7063C73.5226 26.0749 74.0417 25.4824 74.6059 24.9344C75.158 24.3955 75.7558 23.9056 76.3925 23.4699L76.0264 22.9135C75.3264 23.3582 74.6738 23.8735 74.0787 24.4511C73.4781 25.0161 72.9292 25.6336 72.4386 26.2962C72.0524 26.8058 71.7141 27.3499 71.4281 27.9218C71.1432 28.4978 70.9175 29.1013 70.7545 29.723C70.6072 30.2994 70.5092 30.8873 70.4616 31.4803C70.3956 32.074 70.3956 32.6732 70.4616 33.2669C70.5528 34.4458 70.9281 35.585 71.5554 36.5872C72.1828 37.5895 73.0435 38.4249 74.0641 39.022C76.4378 40.1809 78.9855 40.9428 81.6058 41.2772C84.1187 41.5563 86.5056 42.5243 88.5032 44.0743C89.6793 45.1985 90.4732 46.6633 90.773 48.2625C91.0877 50.4871 91.0877 52.7449 90.773 54.9695C90.773 55.1745 90.773 55.3795 90.773 55.5845C90.773 55.6724 90.773 55.5846 90.8755 55.6871L91.4906 55.6431Z" fill="#279FF2"/>
<path fill-rule="evenodd" clip-rule="evenodd" d="M205.335 59.5384L205.613 59.0258C206.385 57.4741 207.674 56.2412 209.259 55.5405C211.676 54.5301 214.605 54.7058 217.416 54.3837C219.327 54.2464 221.173 53.6376 222.791 52.6117L222.468 52.1431C220.914 53.0805 219.155 53.6282 217.343 53.7393C214.414 54.0468 211.485 53.9297 209.025 54.9694C207.271 55.6775 205.86 57.0367 205.086 58.7623C204.998 58.9526 204.925 59.143 204.852 59.3333L205.335 59.5384Z" fill="#A14DF6"/>
<path fill-rule="evenodd" clip-rule="evenodd" d="M78.4997 118.174C78.3567 118.673 78.1805 119.162 77.9725 119.638C77.6639 120.611 77.0036 121.433 76.1208 121.945C75.238 122.457 74.196 122.621 73.1986 122.406C69.435 121.937 64.7196 118.92 61.7029 118.32C60.7992 118.141 59.8673 118.161 58.972 118.378C58.0768 118.595 57.2396 119.005 56.5189 119.579C55.7976 120.151 55.213 120.876 54.8076 121.701C54.4022 122.527 54.1864 123.433 54.1759 124.353C54.1457 125.151 54.1849 125.95 54.293 126.74C54.4282 127.526 54.6091 128.304 54.8348 129.069L55.3327 128.937C55.1192 128.192 54.9529 127.434 54.8348 126.667C54.7691 125.897 54.7691 125.123 54.8348 124.353C54.8471 123.532 55.0397 122.723 55.399 121.984C55.7583 121.245 56.2756 120.594 56.9143 120.077C57.5678 119.574 58.3222 119.218 59.1259 119.034C59.9296 118.849 60.7637 118.841 61.5711 119.008C63.8281 119.702 66.0267 120.574 68.1463 121.615C70.6651 122.669 73.2425 123.519 75.2634 123.079C76.1372 122.893 76.9368 122.454 77.562 121.816C78.1872 121.178 78.6102 120.369 78.778 119.492C78.8929 119.085 78.9665 118.668 78.9976 118.247L78.4997 118.174Z" fill="#A14DF6"/>
</svg>
