<svg width="301" height="277" viewBox="0 0 301 277" fill="none" xmlns="http://www.w3.org/2000/svg">
<path d="M26.67 12.2356C28.0349 67.2608 24.2455 122.16 22.9346 177.114C22.1623 210.247 24.4072 243.471 23.4015 276.568" stroke="#91B3FA" stroke-opacity="0.2" stroke-width="1.54444" stroke-linejoin="round"/>
<path d="M57.7591 14.3906C55.9632 39.6225 58.9623 65.2315 59.7525 90.4813C60.6145 118.497 59.8782 146.44 60.0039 174.438C60.1296 205.488 61.7997 236.7 60.381 267.715" stroke="#91B3FA" stroke-opacity="0.2" stroke-width="1.54444" stroke-linejoin="round"/>
<path d="M89.9961 8.2489C92.1332 93.8396 91.1276 179.43 93.4442 265.057" stroke="#91B3FA" stroke-opacity="0.2" stroke-width="1.54444" stroke-linejoin="round"/>
<path d="M121.691 0.921631C123.002 24.627 121.691 48.512 122.104 72.2353C122.877 121.28 121.548 170.235 121.709 219.28C121.709 234.617 123.074 250.026 122.787 265.344" stroke="#91B3FA" stroke-opacity="0.2" stroke-width="1.54444" stroke-linejoin="round"/>
<path d="M150.623 23.0468C151.216 48.0092 148.253 73.0614 148.343 98.0778C148.558 151.792 148.037 205.345 146.547 259.041" stroke="#91B3FA" stroke-opacity="0.2" stroke-width="1.54444" stroke-linejoin="round"/>
<path d="M176.002 21.3406C178.767 66.4706 175.445 112.768 174.206 157.97C173.29 189.828 175.409 221.741 174.206 253.545" stroke="#91B3FA" stroke-opacity="0.2" stroke-width="1.54444" stroke-linejoin="round"/>
<path d="M199.938 20.4784C201.141 100.664 202.344 180.992 201.733 261.124" stroke="#91B3FA" stroke-opacity="0.2" stroke-width="1.54444" stroke-linejoin="round"/>
<path d="M226.195 10.3859C225.136 52.4629 227.201 94.7913 227.416 136.922C227.596 174.761 225.495 212.348 229.823 250.061" stroke="#91B3FA" stroke-opacity="0.2" stroke-width="1.54444" stroke-linejoin="round"/>
<path d="M26.3008 47.2548C98.6025 45.9438 170.814 41.1309 243.062 38.1139" stroke="#91B3FA" stroke-opacity="0.2" stroke-width="1.54444" stroke-linejoin="round"/>
<path d="M1.81641 87.8593C74.7108 84.2676 147.623 82.4718 220.464 77.7666" stroke="#91B3FA" stroke-opacity="0.2" stroke-width="1.54444" stroke-linejoin="round"/>
<path d="M31.8984 114.025C61.5482 111.134 91.0005 112.481 120.65 111.008C156.011 109.212 191.264 105.297 226.607 103.448" stroke="#91B3FA" stroke-opacity="0.2" stroke-width="1.54444" stroke-linejoin="round"/>
<path d="M0.523438 154.665C52.9987 149.583 106.264 146.943 158.937 144.806C179.625 143.962 200.871 144.393 221.451 142.166" stroke="#91B3FA" stroke-opacity="0.2" stroke-width="1.54444" stroke-linejoin="round"/>
<path d="M9 200.765C79.7034 191.786 152.131 186.183 223.337 182.286" stroke="#91B3FA" stroke-opacity="0.2" stroke-width="1.54444" stroke-linejoin="round"/>
<path d="M16.457 230.433C87.0167 233.001 156.858 219.352 227.256 219.496" stroke="#91B3FA" stroke-opacity="0.2" stroke-width="1.54444" stroke-linejoin="round"/>
<path fill-rule="evenodd" clip-rule="evenodd" d="M27.2461 228.96L136.417 112.229L187.689 146.818L269.617 59.4309L253.113 45.9979L296.609 30.2302L300.524 35.079L293.484 77.7846L277.016 64.8724L182.75 175.264L143.116 152.798L79.9549 228.457L27.2461 228.96Z" fill="black"/>
<path fill-rule="evenodd" clip-rule="evenodd" d="M23.1719 228.906L132.217 109.14L183.489 143.729L265.363 56.342L248.859 42.9089L296.557 30.1583L289.23 74.7137L272.762 61.8014L178.73 173.145L139.113 150.697L75.8986 228.421L23.1719 228.906Z" fill="#ADDD1C"/>
<path d="M246.469 57.0601C243.057 51.5288 235.461 50.9362 232.102 56.7369C230.971 58.6584 231.797 61.3163 230.953 62.9326C230.755 63.2738 230.45 62.322 230.199 62.0347C229.634 61.3629 229.035 60.7215 228.403 60.1131C227.577 59.1519 226.522 58.4144 225.335 57.9687C224.149 57.523 222.869 57.3834 221.614 57.5629C220.52 57.8782 219.559 58.5448 218.881 59.46C218.203 60.3752 217.844 61.4882 217.861 62.6273C217.855 63.3563 217.922 64.0842 218.059 64.8003C218.059 65.1415 218.4 66.0753 218.256 65.788C216.46 61.891 215.203 58.3172 210.318 57.976C205.039 57.6348 200.262 62.6273 199.902 67.7455" stroke="black" stroke-width="1.54444" stroke-linejoin="round"/>
<path d="M273.176 77.4075C277.719 77.9103 282.047 82.9387 280.503 87.7516C280.216 88.5777 277.522 90.9303 277.54 91.3433C277.905 92.7927 278.473 94.1833 279.228 95.4738C280.53 98.5739 280.813 102.008 280.036 105.279C279.375 107.431 278.048 109.317 276.247 110.667C275.69 111.062 275.087 111.387 274.451 111.637C274.164 111.744 273.499 111.637 273.589 111.924C274.474 113.624 275.445 115.279 276.498 116.88C277.839 119.478 278.341 122.427 277.935 125.321C277.53 128.216 276.238 130.914 274.235 133.043" stroke="black" stroke-width="1.54444" stroke-linejoin="round"/>
<path d="M267.426 83.9623C268.484 87.5202 268.79 91.2597 268.323 94.9423C267.856 98.6248 266.627 102.17 264.714 105.351C261.356 111.17 255.196 117.168 257.082 124.423" stroke="black" stroke-width="1.54444" stroke-linejoin="round"/>
<path d="M282.855 78.1976C284.651 81.6457 287.884 83.7109 289.716 87.0332C291.745 90.625 291.224 94.6477 290.596 98.5986" stroke="black" stroke-width="1.54444" stroke-linejoin="round"/>
<path d="M256.151 59.5204C253.284 62.523 249.718 64.7688 245.771 66.0573C241.605 67.2426 238.336 66.9373 234.457 69.3258" stroke="black" stroke-width="1.54444" stroke-linejoin="round"/>
<path d="M245.337 71.4631C236.358 77.4613 225.242 74.8393 216.137 80.7657" stroke="black" stroke-width="1.54444" stroke-linejoin="round"/>
<path d="M232.696 72.3969C226.482 72.2174 219.478 72.0917 213.875 75.0548" stroke="black" stroke-width="1.54444" stroke-linejoin="round"/>
<path d="M283.805 94.1626C286.648 100.768 288.366 107.804 288.887 114.977" stroke="black" stroke-width="1.54444" stroke-linejoin="round"/>
<path d="M278.063 68.8053C277.874 70.9117 277.929 73.0327 278.225 75.1267" stroke="black" stroke-width="1.54444" stroke-linejoin="round"/>
<path d="M254.949 52.0676C251.548 52.1047 248.153 51.7796 244.82 51.0979" stroke="black" stroke-width="1.54444" stroke-linejoin="round"/>
<path d="M277.074 41.616C266.083 41.3825 265.042 57.9943 275.745 58.6048C286.915 59.2514 287.077 41.8674 277.074 41.616Z" stroke="black" stroke-width="1.54444" stroke-linejoin="round"/>
<path fill-rule="evenodd" clip-rule="evenodd" d="M275.707 44.9922C275.697 45.0877 275.697 45.184 275.707 45.2795C275.698 45.3391 275.698 45.3996 275.707 45.4591C275.707 46.8958 275.707 48.3325 275.707 49.7692C275.707 51.2059 275.707 52.6426 275.833 54.0613V54.5462H276.138C276.138 54.3666 276.138 54.205 276.138 54.0254C276.138 53.3429 276.138 52.6605 276.138 51.9781C276.138 49.9667 276.138 47.9554 276.138 45.962C276.138 45.7465 276.138 45.513 276.138 45.2975V45.0102L275.707 44.9922Z" fill="white"/>
<path fill-rule="evenodd" clip-rule="evenodd" d="M277.664 43.4296C277.664 43.6092 277.664 43.7888 277.664 43.9684C277.664 44.1479 277.664 44.2018 277.664 44.3275C277.664 45.9079 277.79 47.5062 277.844 49.0865C277.844 50.1461 277.844 51.2057 277.987 52.2652H278.364C278.364 51.2416 278.364 50.2 278.364 49.1763C278.364 48.1527 278.364 47.1111 278.239 46.0875C278.239 45.3691 278.239 44.6687 278.113 43.9684C278.113 43.7888 278.113 43.6092 278.113 43.4296H277.664Z" fill="white"/>
<path fill-rule="evenodd" clip-rule="evenodd" d="M279.725 48.943C279.717 49.1045 279.717 49.2663 279.725 49.4279C279.725 50.0564 279.725 50.7029 279.725 51.3315C279.725 52.409 279.725 53.4686 279.725 54.5461C279.717 54.6656 279.717 54.7857 279.725 54.9053H280.067C280.075 54.8517 280.075 54.7972 280.067 54.7436C280.076 54.6181 280.076 54.492 280.067 54.3665C280.067 52.7682 280.067 51.1519 280.067 49.5536C280.067 49.5536 280.067 49.3919 280.067 49.3201V48.943H279.725Z" fill="white"/>
<path fill-rule="evenodd" clip-rule="evenodd" d="M195.216 228.313C195.234 228.05 195.234 227.786 195.216 227.523C195.108 225.224 194.408 222.98 194.21 220.681C194.093 218.989 194.093 217.291 194.21 215.599C194.504 210.496 196.093 205.551 198.825 201.232C200.599 198.395 203.313 196.271 206.494 195.234C211.217 193.833 216.174 194.318 220.681 194.515C224.025 194.884 227.408 194.516 230.594 193.438C233.971 191.983 236.646 188.894 237.778 182.393C237.94 181.388 238.065 180.31 238.155 179.125L236.664 178.981C236.521 180.112 236.341 181.136 236.162 182.106C235.048 187.817 232.929 190.618 229.966 191.911C227.011 192.914 223.874 193.263 220.771 192.935C216.102 192.773 210.983 192.36 206.099 193.869C202.616 195.024 199.653 197.37 197.73 200.495C194.921 205.047 193.314 210.238 193.061 215.581C192.947 217.763 193.031 219.951 193.312 222.118C193.397 224.076 193.742 226.014 194.336 227.882C194.436 228.091 194.556 228.29 194.695 228.475L195.216 228.313Z" fill="#279FF2"/>
<path fill-rule="evenodd" clip-rule="evenodd" d="M16.3518 168.781C16.4049 168.611 16.4409 168.437 16.4596 168.26C16.4771 168.189 16.4771 168.115 16.4596 168.045C16.0645 165.979 15.5077 164.058 15.2383 162.064C15.0341 160.582 14.9321 159.088 14.933 157.593C14.933 150.535 17.4114 146.368 21.2545 143.89C25.9418 140.873 32.6583 140.298 39.4287 140.047C46.1992 139.796 53.4185 139.706 58.5726 137.766C61.447 136.808 64.0899 135.261 66.3319 133.223C68.5739 131.185 70.3657 128.702 71.5927 125.932C72.3562 124.168 72.9224 122.325 73.2808 120.436C73.7917 117.629 74.0085 114.776 73.9274 111.924C73.9274 111.349 73.9274 110.757 73.9274 110.128C73.9274 109.499 73.8196 108.961 73.7478 108.332H72.796C72.796 108.925 72.796 109.499 72.796 110.128C72.796 110.757 72.796 111.295 72.796 111.924C72.7975 114.685 72.5268 117.44 71.9878 120.149C71.6316 121.931 71.0899 123.67 70.3715 125.339C69.2185 127.933 67.5392 130.258 65.4401 132.169C63.341 134.079 60.868 135.533 58.1776 136.437C53.1312 138.359 46.2531 138.377 39.4647 138.7C32.6763 139.023 25.5107 139.67 20.6619 142.831C16.5314 145.506 13.8376 150.014 13.8556 157.575C13.8581 159.515 14.0384 161.45 14.3943 163.357C14.5111 165.089 14.899 166.792 15.5437 168.404C15.6599 168.577 15.7921 168.74 15.9387 168.889L16.3518 168.781Z" fill="#279FF2"/>
<path fill-rule="evenodd" clip-rule="evenodd" d="M215.976 179.502C216.263 179.951 215.976 179.646 216.335 180.059C216.335 180.059 216.568 180.059 216.694 180.059C218.76 179.842 220.811 179.5 222.836 179.035C225.238 178.544 227.46 177.407 229.265 175.749C234.437 170.666 236.449 163.537 240.453 158.455C242.573 155.693 245.612 153.781 249.02 153.067C249.666 152.923 250.367 152.852 251.085 152.708C251.265 152.708 251.426 152.6 251.606 152.546L251.48 150.966C251.265 150.949 251.049 150.949 250.834 150.966C250.333 150.981 249.835 151.035 249.343 151.127C246.437 151.566 243.712 152.81 241.477 154.719C238.484 157.57 236.08 160.981 234.401 164.758C232.755 168.301 230.568 171.567 227.918 174.438C227.019 175.293 225.964 175.97 224.811 176.431C222.183 177.339 219.46 177.941 216.694 178.227C216.479 178.227 216.209 178.227 216.048 178.353C215.617 178.73 216.048 178.478 215.85 179.017L215.976 179.502Z" fill="#A14DF6"/>
<path fill-rule="evenodd" clip-rule="evenodd" d="M79.415 113.127C79.415 113.486 79.415 113.791 79.415 114.151C79.415 114.51 79.415 114.366 79.415 114.474C79.4053 114.581 79.4053 114.689 79.415 114.797C81.0275 119.287 81.2835 124.152 80.1512 128.787C78.6966 133.797 75.1587 137.766 70.7229 142.363C69.4299 143.728 68.0291 145.075 66.6642 146.62C66.341 146.979 66.0537 147.374 65.7305 147.751L66.5745 148.595L67.7239 147.661C69.2683 146.314 70.6511 144.932 71.998 143.621C76.7391 138.897 80.3309 134.552 81.7855 129.254C83.0232 124.301 82.665 119.085 80.7619 114.348C80.7619 114.258 80.7619 114.151 80.6362 114.043C80.587 113.941 80.5267 113.844 80.4565 113.755C80.241 113.468 80.0435 113.235 79.792 112.947L79.415 113.127Z" fill="#A14DF6"/>
<path fill-rule="evenodd" clip-rule="evenodd" d="M190.71 17.7668C190.494 18.2338 190.243 18.6289 190.045 19.0599C189.189 20.9729 187.95 22.6907 186.406 24.1082C184.862 25.5256 183.045 26.6127 181.066 27.3029C176.814 28.7739 172.42 29.7971 167.956 30.3558C160.773 31.4333 153.481 32.3133 147.842 34.8275C142.203 37.3417 138.522 41.1849 137.929 48.1528C137.821 49.1556 137.821 50.1671 137.929 51.1698C137.984 51.5987 138.062 52.0244 138.162 52.4449L139.24 52.3551C139.24 51.9241 139.24 51.529 139.24 51.1339C139.24 50.1283 139.24 49.1764 139.366 48.2965C139.566 45.6411 140.516 43.0972 142.106 40.9608C143.696 38.8243 145.859 37.1832 148.345 36.2283C153.876 33.768 161.114 32.9419 168.1 31.8464C172.678 31.2897 177.178 30.2173 181.515 28.6498C186.04 26.8539 189.919 24.1062 191.015 19.419C191.109 18.9156 191.157 18.4047 191.159 17.8925L190.71 17.7668Z" fill="#A14DF6"/>
<path fill-rule="evenodd" clip-rule="evenodd" d="M181.353 86.8538C180.958 87.4105 180.545 87.9313 180.186 88.524C177.618 92.6006 175.498 97.0543 173.002 101.203C172.499 102.029 171.978 102.837 171.494 103.663C171.368 103.879 171.278 104.094 171.152 104.31L172.14 104.956L172.607 104.363C172.93 103.896 173.218 103.412 173.505 102.909C174.493 101.292 175.409 99.6403 176.306 97.9522C177.833 95.0968 179.324 92.2054 180.814 89.3321C180.922 89.1166 181.048 88.9011 181.137 88.6856C181.389 88.1648 181.586 87.626 181.802 87.1052L181.353 86.8538Z" fill="#F56C2C"/>
<path fill-rule="evenodd" clip-rule="evenodd" d="M171.238 91.6127C171.542 92.1343 171.884 92.6325 172.262 93.1033C172.513 93.4086 172.801 93.678 173.088 93.9653C175.333 96.1024 177.883 97.988 180.074 100.161C180.531 100.678 181.017 101.17 181.529 101.634L181.744 101.759L182.391 101.274C182.391 101.185 182.391 101.131 182.391 101.059C182.137 100.574 181.81 100.132 181.421 99.748C180.872 99.0628 180.271 98.4205 179.625 97.8264C178.422 96.695 177.147 95.6355 175.872 94.5759C175.045 93.8755 174.255 93.1213 173.411 92.4568C172.872 92.0258 172.298 91.6845 171.759 91.2535L171.238 91.6127Z" fill="#F56C2C"/>
<path fill-rule="evenodd" clip-rule="evenodd" d="M175.801 88.3621C175.801 88.3621 175.693 88.362 175.657 88.4877C175.64 88.6128 175.64 88.7398 175.657 88.8649C175.505 90.3983 175.451 91.9399 175.496 93.4802C175.586 96.2458 175.891 98.9935 176.16 101.741C176.16 102.675 176.286 103.537 176.394 104.543C176.394 104.776 176.394 105.01 176.483 105.243H177.579C177.579 105.01 177.579 104.776 177.579 104.525C177.573 103.57 177.513 102.617 177.399 101.669C177.148 98.9217 176.735 96.2818 176.573 93.4623C176.475 91.9734 176.475 90.4795 176.573 88.9906C176.591 88.8715 176.591 88.7505 176.573 88.6314C176.573 88.6314 176.573 88.6314 176.465 88.4698L175.801 88.3621Z" fill="#F56C2C"/>
<path fill-rule="evenodd" clip-rule="evenodd" d="M168.533 98.3292C169.215 98.3292 169.88 98.3292 170.544 98.3292C171.209 98.3292 171.424 98.2214 171.873 98.1496C175.357 97.6108 178.769 96.7668 182.235 96.1023C182.828 95.9946 183.439 95.9048 184.031 95.7431C184.301 95.7431 184.534 95.5815 184.803 95.5097L184.678 94.7195H183.672C182.35 94.8635 181.037 95.0793 179.739 95.366C177.62 95.7611 175.519 96.21 173.4 96.6231C172.502 96.8027 171.604 96.9464 170.688 97.1619C169.772 97.3774 169.215 97.5929 168.461 97.7904L168.533 98.3292Z" fill="#F56C2C"/>
<path fill-rule="evenodd" clip-rule="evenodd" d="M129.58 198.107C129.238 198.341 128.915 198.538 128.592 198.79L128.215 199.131C126.563 200.693 125.126 202.435 123.653 204.123C120.654 207.607 117.817 211.163 114.943 214.773L111.352 219.388L112.411 220.25C114.027 218.275 115.626 216.317 117.188 214.342C120.78 209.744 124.372 205.201 128.359 200.729C128.683 200.393 128.988 200.039 129.274 199.67C129.562 199.293 129.777 198.88 130.047 198.466L129.58 198.107Z" fill="#F56C2C"/>
<path fill-rule="evenodd" clip-rule="evenodd" d="M116.934 198.7C117.041 199.221 117.113 199.706 117.257 200.208C117.257 200.334 117.347 200.46 117.383 200.568C117.779 201.429 118.223 202.269 118.712 203.082C121.172 207.374 124.099 211.415 126.416 215.797C126.865 216.659 127.26 217.592 127.691 218.418C127.799 218.652 127.942 218.849 128.05 219.065L129.146 218.652C129.146 218.365 129.002 218.095 128.912 217.826C128.822 217.556 128.768 217.467 128.697 217.287C127.945 215.548 127.087 213.857 126.128 212.223C123.955 208.487 121.459 204.896 119.286 201.142C119.017 200.675 118.783 200.19 118.478 199.759C118.173 199.328 117.76 198.933 117.419 198.484L116.934 198.7Z" fill="#F56C2C"/>
<path fill-rule="evenodd" clip-rule="evenodd" d="M123.685 199.22C123.451 199.645 123.241 200.083 123.057 200.531C122.545 202.346 122.202 204.203 122.033 206.081C121.595 208.864 121.319 211.67 121.207 214.485C121.207 215.186 121.207 215.886 121.207 216.586H122.392C122.482 215.85 122.59 215.132 122.662 214.396C122.662 214.09 122.662 213.767 122.662 213.462C122.841 210.947 123.093 208.469 123.416 205.991C123.614 204.339 123.901 202.704 124.134 201.034C124.144 200.861 124.144 200.687 124.134 200.513C124.134 200.082 124.134 199.705 124.134 199.256L123.685 199.22Z" fill="#F56C2C"/>
<path fill-rule="evenodd" clip-rule="evenodd" d="M113.688 208.523C113.813 208.649 113.687 208.667 113.903 208.774C113.998 208.823 114.102 208.854 114.208 208.864C114.442 208.864 114.693 208.864 114.927 208.864C118.518 208.685 122.272 208.613 125.953 208.451C128.418 208.392 130.876 208.188 133.316 207.841C133.512 207.818 133.704 207.776 133.891 207.715C133.972 207.687 134.05 207.65 134.125 207.607V206.871H133.891H133.388L130.461 207.032C128.521 207.14 126.564 207.194 124.606 207.23C121.643 207.23 118.698 207.356 115.753 207.517C115.271 207.515 114.79 207.557 114.316 207.643C114.169 207.67 114.029 207.725 113.903 207.805C113.777 207.912 113.903 207.93 113.741 208.074L113.688 208.523Z" fill="#F56C2C"/>
<path fill-rule="evenodd" clip-rule="evenodd" d="M268.055 109.158C267.733 109.337 267.427 109.541 267.139 109.769C264.352 111.656 262.343 114.489 261.482 117.742C261.119 119.952 261.31 122.216 262.039 124.333C262.978 127.359 263.48 130.504 263.529 133.672C263.519 136.997 262.961 140.298 261.877 143.441C260.819 146.589 259.194 149.516 257.082 152.079L257.782 152.69C260.057 150.08 261.818 147.064 262.972 143.8C264.106 140.545 264.677 137.119 264.661 133.672C264.587 130.405 264.055 127.165 263.08 124.046C262.387 122.102 262.184 120.017 262.488 117.976C262.955 115.803 264.661 113.702 267.714 110.379C267.955 110.116 268.183 109.84 268.396 109.553L268.055 109.158Z" fill="#F56C2C"/>
<path fill-rule="evenodd" clip-rule="evenodd" d="M240.704 45.1898C240.561 45.1898 240.507 45.082 240.363 45.082C239.503 45.1844 238.655 45.3709 237.831 45.6387C233.52 46.312 229.135 46.3603 224.811 45.7824C220.402 45.0983 215.923 44.9897 211.486 45.4591C207.268 46.157 203.271 47.8296 199.812 50.3439L200.243 50.9725C203.631 48.5787 207.529 47.0049 211.629 46.3751C215.98 45.9429 220.367 46.0696 224.685 46.7522C229.106 47.3583 233.594 47.2857 237.993 46.5367C238.893 46.4966 239.777 46.2832 240.597 45.9081C240.688 45.831 240.767 45.7401 240.83 45.6387L240.704 45.1898Z" fill="#F56C2C"/>
<path fill-rule="evenodd" clip-rule="evenodd" d="M122.645 59.4847C122.674 59.6111 122.722 59.7323 122.788 59.8439C123.098 60.1506 123.456 60.4053 123.848 60.5981C125.829 62.1205 128.184 63.0808 130.665 63.3779C133.146 63.675 135.661 63.2978 137.945 62.2862C144.231 59.6822 149.942 53.3069 156.227 49.2842C159.766 46.664 164.176 45.5006 168.547 46.0337C168.816 46.0337 169.104 46.1594 169.391 46.1953C169.678 46.2312 169.768 46.1953 169.984 46.1953L170.181 45.459L169.606 45.2075C169.305 45.1304 168.999 45.0705 168.691 45.028C163.914 44.2019 159.711 45.8541 155.635 48.4221C149.403 52.4449 143.782 58.7843 137.55 61.3883C135.414 62.338 133.061 62.6958 130.739 62.4241C128.417 62.1524 126.21 61.2612 124.351 59.8439C124.032 59.5742 123.689 59.3337 123.327 59.1255C123.202 59.1078 123.075 59.1078 122.95 59.1255L122.645 59.4847Z" fill="#279FF2"/>
</svg>
