<svg width="154" height="48" viewBox="0 0 154 48" fill="none" xmlns="http://www.w3.org/2000/svg">
<path d="M21.914 0.0603218C16.1426 0.650089 10.9977 3.04527 7.03358 7.01717C-2.19592 16.2368 -2.3646 31.1976 6.66006 40.6219C11.2025 45.3761 17.3354 48 23.9021 48H25.7697V32.5336V17.0673H26.6734H27.577V18.3792V19.7032L28.5168 18.7764C29.6254 17.6571 30.6254 17.1275 32.0713 16.8627C36.927 15.9961 41.361 20.3411 40.6019 25.2398C40.3248 27.0452 39.6742 28.309 38.397 29.5848C36.9632 31.0051 35.3245 31.6791 33.3003 31.667C31.3122 31.655 29.782 30.993 28.3 29.5367L27.577 28.8265V38.2869C27.577 46.9649 27.5891 47.7593 27.7698 47.7593C28.2036 47.7593 30.8182 47.1093 31.9628 46.7242C33.5413 46.1826 35.7944 45.0752 37.1559 44.1846C42.6744 40.5497 46.2649 35.2418 47.6626 28.6821C47.9638 27.2137 47.9879 26.9248 48 24.1084C48 20.7624 47.8916 19.8597 47.1566 17.308C44.4576 7.94395 36.2523 1.10746 26.4926 0.0964279C25.4082 -0.0118942 22.8297 -0.0359688 21.914 0.0603218ZM16.733 17.0191C17.8053 17.3321 18.7331 17.8978 19.5645 18.7283C19.9982 19.1495 20.3477 19.5588 20.3477 19.6069C20.3477 19.6671 20.4079 19.7152 20.4682 19.7152C20.5404 19.7152 20.5886 19.1977 20.5886 18.3913V17.0673H21.4321H22.2755V25.0713V33.0753H21.4321H20.5886V30.9569V28.8386L19.697 29.6811C18.215 31.0532 16.6366 31.6791 14.6847 31.667C12.6363 31.655 11.1905 31.0412 9.6723 29.5246C8.14208 27.996 7.45529 26.3591 7.45529 24.2288C7.45529 22.2187 8.06979 20.642 9.39517 19.1856C10.5639 17.9098 11.9736 17.1034 13.5159 16.8266C14.3352 16.6821 15.9136 16.7784 16.733 17.0191Z" fill="#2E3192"/>
<path d="M13.7115 18.504C12.8653 18.6606 11.7048 19.2751 11.0521 19.8775C7.99374 22.7209 8.71903 27.697 12.4422 29.5404C13.3247 29.9621 13.4576 29.9983 14.6544 30.0344C16.117 30.0826 17.0116 29.8657 18.0995 29.1669C20.493 27.6368 21.3634 24.3355 20.1062 21.6486C19.6831 20.745 18.5347 19.504 17.7127 19.0582C16.6127 18.4678 15.0291 18.2389 13.7115 18.504Z" fill="#2E3192"/>
<path d="M31.9236 18.5055C29.9214 18.8905 28.1376 20.5865 27.5915 22.6313C27.3731 23.4132 27.3731 25.1092 27.5915 25.891C28.2711 28.417 30.4553 30.0408 33.1734 30.0408C34.3626 30.0408 35.2363 29.8123 36.1827 29.247C38.282 27.984 39.3862 25.2896 38.8159 22.8238C38.4762 21.3563 37.2627 19.7565 35.9643 19.0709C34.8237 18.4574 33.2583 18.2409 31.9236 18.5055Z" fill="#2E3192"/>
<path d="M75.5395 18.3632C74.7802 18.7484 74.515 19.555 74.8766 20.3736C75.2382 21.2043 76.0699 21.5052 76.8895 21.108C77.8899 20.6385 78.0345 19.3503 77.1787 18.5678C76.781 18.2067 76.0337 18.1104 75.5395 18.3632Z" fill="#2E3192"/>
<path d="M66.1016 24.791V31.1701H67.3069H68.5122V24.791V18.4119H67.3069H66.1016V24.791Z" fill="#2E3192"/>
<path d="M70.5605 24.791V31.1701H71.7659H72.9712V24.791V18.4119H71.7659H70.5605V24.791Z" fill="#2E3192"/>
<path d="M58.1277 21.7819C56.5246 22.0588 55.1867 23.3587 54.7408 25.0919C54.0778 27.5833 55.1385 30.0387 57.3081 31.0257C57.8625 31.2784 58.1639 31.3386 58.9473 31.3386C59.9839 31.3266 60.5624 31.146 61.2615 30.6164L61.6593 30.3155V30.7368V31.1701H62.8646H64.0699V26.5362V21.9023H62.8646H61.6593V22.3356V22.7569L61.2977 22.5041C60.4058 21.8662 59.2245 21.6014 58.1277 21.7819ZM60.454 24.2132C62.2137 25.1039 62.2137 27.9926 60.454 28.8832C59.2728 29.485 57.8264 28.9795 57.2599 27.7639C56.1751 25.453 58.2844 23.118 60.454 24.2132Z" fill="#2E3192"/>
<path d="M82.5181 21.7941C80.9271 22.0709 79.6615 23.2505 79.1793 24.9596C79.0227 25.4771 78.9865 25.9706 79.0227 26.8252C79.0829 28.3778 79.4566 29.2083 80.5172 30.1953C81.9516 31.5433 83.7716 31.7479 85.4349 30.7489L86.1099 30.3397V30.761V31.1702H87.3152H88.5206V26.5363V21.9024H87.3273H86.122L86.0858 22.3357L86.0497 22.757L85.6398 22.4561C84.8564 21.8784 83.5908 21.6136 82.5181 21.7941ZM84.6997 24.1171C85.7483 24.5504 86.3871 25.8623 86.134 27.0659C85.8689 28.3056 85.1095 29.0157 83.9524 29.1C82.4578 29.2083 81.4092 28.1371 81.4092 26.5122C81.4212 25.0198 82.3855 23.9606 83.7354 23.9486C84.0488 23.9486 84.4827 24.0208 84.6997 24.1171Z" fill="#2E3192"/>
<path d="M95.6329 21.7459C95.0423 21.8422 94.4758 22.0588 93.9817 22.3958L93.4634 22.7328V22.3236V21.9024H92.2581H91.0527V26.5362V31.1701H92.2581H93.4634V28.4259C93.4634 25.802 93.4754 25.6696 93.7526 25.0799C94.0901 24.3457 94.6566 23.9485 95.3437 23.9485C95.9102 23.9485 96.2838 24.1772 96.561 24.7068C96.7418 25.0317 96.778 25.5252 96.8142 28.125L96.8624 31.1701H98.0677H99.273L99.2248 27.5834C99.1886 24.2614 99.1766 23.9726 98.9355 23.467C98.6583 22.8773 97.9713 22.1912 97.3927 21.9625C96.9588 21.794 96.0669 21.6857 95.6329 21.7459Z" fill="#2E3192"/>
<path d="M104.817 21.794C103.19 21.9986 101.695 23.0578 100.984 24.4901C100.659 25.1641 100.635 25.3086 100.635 26.5964C100.635 27.8722 100.659 28.0287 100.972 28.6426C101.442 29.5453 102.382 30.4841 103.226 30.8572C104.685 31.5192 106.71 31.5192 108.132 30.8692C108.771 30.5804 109.855 29.6777 109.855 29.4369C109.843 29.3647 109.458 29.0397 108.976 28.7268C108.301 28.2694 108.072 28.1611 107.927 28.2694C106.951 28.9555 106.661 29.0638 105.697 29.0638C104.528 29.0638 103.937 28.8111 103.407 28.0528C102.901 27.3427 102.84 26.1752 103.25 25.3928C104.022 23.9364 106.023 23.5152 107.457 24.5142L108.084 24.9354L109 24.454C109.494 24.1892 109.928 23.9124 109.952 23.8402C110.024 23.6235 109.144 22.781 108.445 22.4079C107.312 21.8181 106.155 21.6135 104.817 21.794Z" fill="#2E3192"/>
<path d="M114.678 21.7941C113.677 21.9626 112.846 22.42 112.11 23.2264C111.158 24.2374 110.893 24.9837 110.893 26.5965C110.881 27.776 110.905 27.9205 111.267 28.6667C111.966 30.1592 113.195 31.0498 114.87 31.3146C115.895 31.4711 117.269 31.2785 118.113 30.8693C118.812 30.5323 119.969 29.425 119.8 29.2565C119.728 29.2083 119.282 28.9796 118.8 28.763C118.077 28.438 117.872 28.3778 117.715 28.4982C117.136 28.9074 116.486 29.1602 115.871 29.2083C114.907 29.3046 113.966 28.8593 113.533 28.113C112.966 27.1502 112.773 27.1983 116.847 27.1983H120.463V26.5002C120.463 24.8031 119.74 23.4069 118.402 22.5163C117.414 21.8543 115.979 21.5775 114.678 21.7941ZM116.835 24.0569C117.293 24.2976 118.052 25.0559 118.052 25.2725C118.052 25.3447 117.136 25.3929 115.702 25.3929C114.412 25.3929 113.352 25.3568 113.352 25.3207C113.352 25.2725 113.46 25.0559 113.605 24.8272C114.159 23.9365 115.811 23.5393 116.835 24.0569Z" fill="#2E3192"/>
<path d="M126.356 21.782C125.789 21.8783 125.223 22.1191 124.656 22.5283L124.319 22.757V22.3357V21.9024H123.114H121.908V28.7028V35.5032H123.114H124.319V32.9034V30.3156L124.717 30.6165C125.416 31.1461 125.994 31.3267 127.043 31.3387C127.911 31.3387 128.116 31.2905 128.803 30.9535C129.767 30.4841 130.478 29.7379 130.984 28.6667C131.346 27.9084 131.37 27.776 131.37 26.5363C131.358 24.755 131.093 24.0689 129.996 22.9736C129.405 22.3839 129.044 22.1311 128.598 21.9867C127.79 21.7339 127.031 21.6617 126.356 21.782ZM127.935 24.3578C128.67 24.8392 129.068 25.766 128.983 26.7409C128.766 29.1722 125.994 30.0027 124.62 28.0649C124.283 27.5834 124.259 27.4631 124.259 26.5363C124.259 25.6216 124.295 25.4892 124.62 25.0077C125.38 23.9245 126.838 23.6356 127.935 24.3578Z" fill="#2E3192"/>
<path d="M136.359 21.782C135.13 21.9866 133.912 22.9374 133.31 24.1411C133.141 24.4901 132.936 25.1762 132.852 25.6696C132.49 28.0046 133.539 30.1109 135.528 31.0257C136.781 31.6034 138.698 31.3747 139.59 30.5442L139.867 30.2915V30.7248V31.1701H141.072H142.277V26.5362V21.9023H141.072H139.867V22.3477C139.867 22.7569 139.855 22.7689 139.65 22.5884C138.987 21.9866 137.432 21.6014 136.359 21.782ZM138.517 24.129C139.469 24.5382 139.975 25.3567 139.987 26.5122C139.987 28.137 138.939 29.2082 137.444 29.0999C135.516 28.9555 134.539 26.7408 135.636 25.0076C136.239 24.0688 137.456 23.6957 138.517 24.129Z" fill="#2E3192"/>
<path d="M75.0215 26.5362V31.1701H76.2268H77.4321V26.5362V21.9024H76.2268H75.0215V26.5362Z" fill="#2E3192"/>
<path d="M143.531 22.119C143.579 22.2394 144.351 24.1531 145.267 26.3798L146.93 30.4239L146.002 32.9635L145.074 35.5152L146.34 35.4791L147.593 35.443L150.426 28.763C151.968 25.092 153.246 22.0348 153.246 21.9866C153.246 21.9385 152.692 21.9144 152.017 21.9265L150.799 21.9626L149.558 24.6587C148.871 26.1391 148.292 27.3668 148.268 27.4029C148.244 27.427 147.702 26.1993 147.087 24.6827L145.954 21.9024H144.712C143.567 21.9024 143.471 21.9144 143.531 22.119Z" fill="#2E3192"/>
<path d="M58.8085 39.7404V40.4973H57.3029V45.3967H56.3751V40.4973H54.8613V39.7404H58.8085Z" fill="#94B9F9"/>
<path d="M62.1083 40.8391C62.4501 40.8391 62.754 40.9123 63.0198 41.0588C63.2911 41.2053 63.5027 41.4223 63.6546 41.7099C63.812 41.9975 63.8907 42.3447 63.8907 42.7516V45.3967H62.971V42.89C62.971 42.4885 62.8706 42.1819 62.6699 41.9703C62.4691 41.7533 62.1951 41.6448 61.8479 41.6448C61.5006 41.6448 61.2239 41.7533 61.0177 41.9703C60.817 42.1819 60.7166 42.4885 60.7166 42.89V45.3967H59.7888V39.3741H60.7166V41.4332C60.874 41.2433 61.072 41.0968 61.3107 40.9937C61.5549 40.8906 61.8208 40.8391 62.1083 40.8391Z" fill="#94B9F9"/>
<path d="M69.2248 43.0446C69.2248 43.2128 69.2139 43.3647 69.1922 43.5004H65.7659C65.793 43.8585 65.9259 44.146 66.1647 44.3631C66.4034 44.5801 66.6964 44.6886 67.0436 44.6886C67.5428 44.6886 67.8955 44.4797 68.1016 44.0619H69.1027C68.967 44.4743 68.7202 44.8134 68.3621 45.0793C68.0094 45.3397 67.5699 45.4699 67.0436 45.4699C66.615 45.4699 66.2298 45.375 65.888 45.1851C65.5516 44.9897 65.2857 44.7184 65.0904 44.3712C64.9005 44.0185 64.8055 43.6116 64.8055 43.1504C64.8055 42.6892 64.8978 42.285 65.0822 41.9378C65.2721 41.5851 65.5353 41.3138 65.8717 41.1239C66.2135 40.934 66.6042 40.8391 67.0436 40.8391C67.4668 40.8391 67.8439 40.9313 68.1749 41.1158C68.5059 41.3003 68.7636 41.5607 68.9481 41.8971C69.1325 42.2281 69.2248 42.6106 69.2248 43.0446ZM68.2563 42.7516C68.2509 42.4098 68.1288 42.1358 67.89 41.9296C67.6513 41.7235 67.3556 41.6204 67.0029 41.6204C66.6828 41.6204 66.4088 41.7235 66.181 41.9296C65.9531 42.1304 65.8174 42.4044 65.774 42.7516H68.2563Z" fill="#94B9F9"/>
<path d="M75.662 39.7404V40.4973H73.2611V42.1657H75.133V42.9225H73.2611V45.3967H72.3333V39.7404H75.662Z" fill="#94B9F9"/>
<path d="M80.6236 40.9123V45.3967H79.6958V44.8677C79.5493 45.0521 79.3567 45.1986 79.118 45.3071C78.8847 45.4102 78.6351 45.4618 78.3692 45.4618C78.0166 45.4618 77.6992 45.3885 77.417 45.242C77.1403 45.0955 76.9206 44.8785 76.7578 44.5909C76.6005 44.3034 76.5218 43.9561 76.5218 43.5492V40.9123H77.4414V43.4109C77.4414 43.8124 77.5418 44.1216 77.7426 44.3386C77.9433 44.5503 78.2173 44.6561 78.5646 44.6561C78.9118 44.6561 79.1858 44.5503 79.3866 44.3386C79.5927 44.1216 79.6958 43.8124 79.6958 43.4109V40.9123H80.6236Z" fill="#94B9F9"/>
<path d="M82.9709 41.6692V44.1515C82.9709 44.3197 83.0089 44.4417 83.0848 44.5177C83.1662 44.5882 83.3018 44.6235 83.4917 44.6235H84.0614V45.3967H83.329C82.9112 45.3967 82.5911 45.299 82.3686 45.1037C82.1462 44.9083 82.0349 44.5909 82.0349 44.1515V41.6692H81.5059V40.9123H82.0349V39.7973H82.9709V40.9123H84.0614V41.6692H82.9709Z" fill="#94B9F9"/>
<path d="M89.0184 40.9123V45.3967H88.0906V44.8677C87.9441 45.0521 87.7515 45.1986 87.5128 45.3071C87.2794 45.4102 87.0299 45.4618 86.764 45.4618C86.4113 45.4618 86.0939 45.3885 85.8118 45.242C85.5351 45.0955 85.3153 44.8785 85.1526 44.5909C84.9952 44.3034 84.9166 43.9561 84.9166 43.5492V40.9123H85.8362V43.4109C85.8362 43.8124 85.9366 44.1216 86.1373 44.3386C86.3381 44.5503 86.6121 44.6561 86.9593 44.6561C87.3066 44.6561 87.5806 44.5503 87.7813 44.3386C87.9875 44.1216 88.0906 43.8124 88.0906 43.4109V40.9123H89.0184Z" fill="#94B9F9"/>
<path d="M91.211 41.5634C91.3467 41.3355 91.5257 41.1592 91.7482 41.0344C91.976 40.9042 92.2446 40.8391 92.5539 40.8391V41.7994H92.3179C91.9543 41.7994 91.6776 41.8917 91.4877 42.0761C91.3033 42.2606 91.211 42.5807 91.211 43.0365V45.3967H90.2832V40.9123H91.211V41.5634Z" fill="#94B9F9"/>
<path d="M97.5574 43.0446C97.5574 43.2128 97.5465 43.3647 97.5248 43.5004H94.0985C94.1256 43.8585 94.2585 44.146 94.4973 44.3631C94.736 44.5801 95.029 44.6886 95.3762 44.6886C95.8754 44.6886 96.2281 44.4797 96.4342 44.0619H97.4353C97.2996 44.4743 97.0528 44.8134 96.6947 45.0793C96.342 45.3397 95.9025 45.4699 95.3762 45.4699C94.9476 45.4699 94.5624 45.375 94.2206 45.1851C93.8842 44.9897 93.6183 44.7184 93.423 44.3712C93.2331 44.0185 93.1381 43.6116 93.1381 43.1504C93.1381 42.6892 93.2304 42.285 93.4148 41.9378C93.6047 41.5851 93.8679 41.3138 94.2043 41.1239C94.5461 40.934 94.9368 40.8391 95.3762 40.8391C95.7994 40.8391 96.1765 40.9313 96.5075 41.1158C96.8385 41.3003 97.0962 41.5607 97.2807 41.8971C97.4651 42.2281 97.5574 42.6106 97.5574 43.0446ZM96.5889 42.7516C96.5835 42.4098 96.4614 42.1358 96.2226 41.9296C95.9839 41.7235 95.6882 41.6204 95.3355 41.6204C95.0154 41.6204 94.7414 41.7235 94.5135 41.9296C94.2857 42.1304 94.15 42.4044 94.1066 42.7516H96.5889Z" fill="#94B9F9"/>
<path d="M102.611 45.4699C102.188 45.4699 101.805 45.375 101.463 45.1851C101.122 44.9897 100.853 44.7184 100.658 44.3712C100.462 44.0185 100.365 43.6116 100.365 43.1504C100.365 42.6947 100.465 42.2905 100.666 41.9378C100.867 41.5851 101.141 41.3138 101.488 41.1239C101.835 40.934 102.223 40.8391 102.652 40.8391C103.08 40.8391 103.468 40.934 103.816 41.1239C104.163 41.3138 104.437 41.5851 104.638 41.9378C104.838 42.2905 104.939 42.6947 104.939 43.1504C104.939 43.6062 104.836 44.0104 104.629 44.3631C104.423 44.7157 104.141 44.9897 103.783 45.1851C103.43 45.375 103.04 45.4699 102.611 45.4699ZM102.611 44.6642C102.85 44.6642 103.072 44.6072 103.278 44.4933C103.49 44.3793 103.661 44.2084 103.791 43.9806C103.921 43.7527 103.986 43.476 103.986 43.1504C103.986 42.8249 103.924 42.5509 103.799 42.3284C103.674 42.1006 103.509 41.9296 103.303 41.8157C103.097 41.7018 102.874 41.6448 102.635 41.6448C102.397 41.6448 102.174 41.7018 101.968 41.8157C101.767 41.9296 101.607 42.1006 101.488 42.3284C101.369 42.5509 101.309 42.8249 101.309 43.1504C101.309 43.6333 101.431 44.0077 101.675 44.2735C101.925 44.534 102.237 44.6642 102.611 44.6642Z" fill="#94B9F9"/>
<path d="M107.777 41.6692H106.946V45.3967H106.01V41.6692H105.481V40.9123H106.01V40.5949C106.01 40.0795 106.146 39.7051 106.417 39.4718C106.694 39.2331 107.125 39.1137 107.711 39.1137V39.8869C107.429 39.8869 107.231 39.9411 107.117 40.0496C107.003 40.1527 106.946 40.3345 106.946 40.5949V40.9123H107.777V41.6692Z" fill="#94B9F9"/>
<path d="M114.75 41.4251C114.75 41.7126 114.682 41.9839 114.546 42.2389C114.41 42.4939 114.193 42.7028 113.895 42.8656C113.597 43.0229 113.214 43.1016 112.747 43.1016H111.722V45.3967H110.794V39.7404H112.747C113.182 39.7404 113.548 39.8163 113.846 39.9683C114.15 40.1147 114.375 40.3155 114.522 40.5705C114.674 40.8255 114.75 41.1104 114.75 41.4251ZM112.747 42.3447C113.1 42.3447 113.363 42.266 113.537 42.1087C113.711 41.9459 113.797 41.718 113.797 41.4251C113.797 40.8065 113.447 40.4973 112.747 40.4973H111.722V42.3447H112.747Z" fill="#94B9F9"/>
<path d="M115.366 43.1341C115.366 42.6838 115.458 42.285 115.643 41.9378C115.832 41.5905 116.087 41.322 116.408 41.1321C116.733 40.9367 117.091 40.8391 117.482 40.8391C117.835 40.8391 118.141 40.9096 118.402 41.0507C118.667 41.1863 118.879 41.3572 119.036 41.5634V40.9123H119.972V45.3967H119.036V44.7293C118.879 44.9409 118.665 45.1172 118.393 45.2583C118.122 45.3994 117.813 45.4699 117.466 45.4699C117.08 45.4699 116.728 45.3722 116.408 45.1769C116.087 44.9762 115.832 44.6995 115.643 44.3468C115.458 43.9887 115.366 43.5845 115.366 43.1341ZM119.036 43.1504C119.036 42.8412 118.971 42.5726 118.841 42.3447C118.716 42.1168 118.551 41.9432 118.345 41.8238C118.138 41.7045 117.916 41.6448 117.677 41.6448C117.438 41.6448 117.216 41.7045 117.01 41.8238C116.804 41.9378 116.635 42.1087 116.505 42.3366C116.38 42.559 116.318 42.8249 116.318 43.1341C116.318 43.4434 116.38 43.7147 116.505 43.948C116.635 44.1813 116.804 44.3604 117.01 44.4851C117.221 44.6045 117.444 44.6642 117.677 44.6642C117.916 44.6642 118.138 44.6045 118.345 44.4851C118.551 44.3658 118.716 44.1922 118.841 43.9643C118.971 43.731 119.036 43.4597 119.036 43.1504Z" fill="#94B9F9"/>
<path d="M125.268 40.9123L122.517 47.5045H121.557L122.469 45.3234L120.703 40.9123H121.736L122.998 44.3305L124.308 40.9123H125.268Z" fill="#94B9F9"/>
<path d="M131.438 40.8391C131.79 40.8391 132.105 40.9123 132.382 41.0588C132.664 41.2053 132.884 41.4223 133.041 41.7099C133.204 41.9975 133.285 42.3447 133.285 42.7516V45.3967H132.365V42.89C132.365 42.4885 132.265 42.1819 132.064 41.9703C131.863 41.7533 131.59 41.6448 131.242 41.6448C130.895 41.6448 130.618 41.7533 130.412 41.9703C130.211 42.1819 130.111 42.4885 130.111 42.89V45.3967H129.191V42.89C129.191 42.4885 129.091 42.1819 128.89 41.9703C128.689 41.7533 128.415 41.6448 128.068 41.6448C127.721 41.6448 127.444 41.7533 127.238 41.9703C127.037 42.1819 126.937 42.4885 126.937 42.89V45.3967H126.009V40.9123H126.937V41.4251C127.089 41.2406 127.282 41.0968 127.515 40.9937C127.748 40.8906 127.998 40.8391 128.264 40.8391C128.622 40.8391 128.942 40.915 129.224 41.067C129.506 41.2189 129.723 41.4386 129.875 41.7262C130.011 41.4549 130.222 41.2406 130.51 41.0832C130.797 40.9205 131.107 40.8391 131.438 40.8391Z" fill="#94B9F9"/>
<path d="M138.616 43.0446C138.616 43.2128 138.605 43.3647 138.584 43.5004H135.157C135.185 43.8585 135.317 44.146 135.556 44.3631C135.795 44.5801 136.088 44.6886 136.435 44.6886C136.934 44.6886 137.287 44.4797 137.493 44.0619H138.494C138.359 44.4743 138.112 44.8134 137.754 45.0793C137.401 45.3397 136.961 45.4699 136.435 45.4699C136.007 45.4699 135.621 45.375 135.279 45.1851C134.943 44.9897 134.677 44.7184 134.482 44.3712C134.292 44.0185 134.197 43.6116 134.197 43.1504C134.197 42.6892 134.289 42.285 134.474 41.9378C134.664 41.5851 134.927 41.3138 135.263 41.1239C135.605 40.934 135.996 40.8391 136.435 40.8391C136.858 40.8391 137.235 40.9313 137.566 41.1158C137.897 41.3003 138.155 41.5607 138.34 41.8971C138.524 42.2281 138.616 42.6106 138.616 43.0446ZM137.648 42.7516C137.642 42.4098 137.52 42.1358 137.282 41.9296C137.043 41.7235 136.747 41.6204 136.394 41.6204C136.074 41.6204 135.8 41.7235 135.572 41.9296C135.345 42.1304 135.209 42.4044 135.166 42.7516H137.648Z" fill="#94B9F9"/>
<path d="M141.833 40.8391C142.185 40.8391 142.5 40.9123 142.777 41.0588C143.059 41.2053 143.278 41.4223 143.436 41.7099C143.593 41.9975 143.672 42.3447 143.672 42.7516V45.3967H142.752V42.89C142.752 42.4885 142.652 42.1819 142.451 41.9703C142.25 41.7533 141.976 41.6448 141.629 41.6448C141.282 41.6448 141.005 41.7533 140.799 41.9703C140.598 42.1819 140.498 42.4885 140.498 42.89V45.3967H139.57V40.9123H140.498V41.4251C140.65 41.2406 140.842 41.0968 141.076 40.9937C141.314 40.8906 141.567 40.8391 141.833 40.8391Z" fill="#94B9F9"/>
<path d="M145.978 41.6692V44.1515C145.978 44.3197 146.016 44.4417 146.092 44.5177C146.174 44.5882 146.309 44.6235 146.499 44.6235H147.069V45.3967H146.337C145.919 45.3967 145.599 45.299 145.376 45.1037C145.154 44.9083 145.042 44.5909 145.042 44.1515V41.6692H144.513V40.9123H145.042V39.7973H145.978V40.9123H147.069V41.6692H145.978Z" fill="#94B9F9"/>
<path d="M149.592 45.4699C149.24 45.4699 148.922 45.4075 148.64 45.2827C148.364 45.1525 148.144 44.9789 147.981 44.7619C147.818 44.5394 147.731 44.2925 147.721 44.0212H148.681C148.697 44.2111 148.787 44.3712 148.95 44.5014C149.118 44.6262 149.327 44.6886 149.576 44.6886C149.837 44.6886 150.037 44.6398 150.178 44.5421C150.325 44.439 150.398 44.3088 150.398 44.1515C150.398 43.9833 150.317 43.8585 150.154 43.7771C149.997 43.6957 149.744 43.6062 149.397 43.5085C149.061 43.4163 148.787 43.3268 148.575 43.2399C148.364 43.1531 148.179 43.0202 148.022 42.8412C147.87 42.6621 147.794 42.4261 147.794 42.1331C147.794 41.8944 147.864 41.6773 148.005 41.482C148.147 41.2813 148.347 41.1239 148.608 41.01C148.874 40.896 149.177 40.8391 149.519 40.8391C150.029 40.8391 150.439 40.9693 150.748 41.2297C151.063 41.4847 151.231 41.8347 151.253 42.2796H150.325C150.309 42.0788 150.227 41.9188 150.081 41.7994C149.934 41.6801 149.736 41.6204 149.487 41.6204C149.243 41.6204 149.055 41.6665 148.925 41.7587C148.795 41.851 148.73 41.973 148.73 42.125C148.73 42.2443 148.773 42.3447 148.86 42.4261C148.947 42.5075 149.053 42.5726 149.177 42.6214C149.302 42.6648 149.487 42.7218 149.731 42.7923C150.056 42.8791 150.322 42.9687 150.528 43.0609C150.74 43.1477 150.922 43.2779 151.074 43.4515C151.226 43.6252 151.304 43.8558 151.31 44.1433C151.31 44.3983 151.239 44.6262 151.098 44.827C150.957 45.0277 150.756 45.1851 150.496 45.299C150.241 45.4129 149.94 45.4699 149.592 45.4699Z" fill="#94B9F9"/>
</svg>
