<svg width="140" height="152" viewBox="0 0 140 152" fill="none" xmlns="http://www.w3.org/2000/svg">
<path fill-rule="evenodd" clip-rule="evenodd" d="M36.3532 29.8323C31.9714 35.3754 29.776 40.2381 27.9525 43.495C22.8359 52.6215 18.8079 62.7369 19.198 73.3695C19.2587 75.3737 19.5633 77.3631 20.1052 79.2936C20.4911 80.632 20.9856 81.9367 21.5839 83.1946C25.5847 92.1942 31.5632 87.8849 37.1969 83.1946C39.4268 81.1685 41.9162 79.4479 44.5996 78.0779C45.3163 77.7604 46.7316 77.1707 47.158 78.214C48.5641 81.4981 45.7427 86.3789 44.7357 89.3818C41.7601 98.3179 35.5548 107.19 35.1829 116.843C34.9652 122.404 36.208 129.952 43.5292 129.09C47.5571 128.619 50.2334 125.171 53.082 122.631C60.6027 115.9 66.3453 107.209 73.9476 100.695C78.7921 96.5125 84.0448 92.5933 90.2319 90.7154C93.9424 89.5995 98.6235 90.289 102.08 88.5653C104.384 87.4131 106.153 85.1814 108.004 83.4486C117.022 74.9934 124.588 60.0788 117.983 47.777C115.724 43.5857 110.281 42.3337 105.863 43.3407C97.8796 45.1098 86.2493 51.0611 80.162 42.5333C76.1521 36.9177 74.9093 29.3606 77.8758 23.0191C78.1843 22.3569 79.8263 19.3903 80.162 18.846C80.9811 17.4429 81.8902 16.0944 82.8836 14.8089C85.6052 11.0349 93.2982 0.674487 83.0106 0.674487C81.7784 0.641447 80.55 0.82571 79.3818 1.21882C77.5674 1.82665 75.5988 2.12604 73.7299 2.69758C71.0065 3.52638 68.3498 4.56055 65.7828 5.79118C61.59 7.75996 57.5823 10.1009 53.8078 12.7858C47.2729 17.6845 41.4051 23.4151 36.3532 29.8323Z" fill="#91B3FA" fill-opacity="0.2"/>
<path fill-rule="evenodd" clip-rule="evenodd" d="M109.685 66.9102C109.622 66.9555 109.576 66.9555 109.531 67.0099C109.495 67.0739 109.465 67.1406 109.44 67.2096C108.988 68.2173 108.457 69.1879 107.853 70.1126C107.045 71.3646 106.147 72.5803 105.34 73.7959C105.131 74.1225 104.941 74.44 104.75 74.7576L105.258 75.0842L105.639 74.5489C106.719 72.9703 107.88 71.3192 108.851 69.6227C109.278 68.8845 109.654 68.1176 109.975 67.3275C110 67.289 110.015 67.2456 110.021 67.2005C110.024 67.1397 110.008 67.0794 109.975 67.0281L109.685 66.9102Z" fill="#F56C2C"/>
<path fill-rule="evenodd" clip-rule="evenodd" d="M104.938 68.8696C104.938 68.9694 104.938 69.0239 104.938 69.1146L104.992 69.1872C105.237 69.4957 105.491 69.786 105.763 70.0944C106.815 71.2103 107.995 72.181 109.056 73.2697L109.365 73.5962C109.519 73.7595 109.682 73.9047 109.836 74.068L110.381 73.6144C110.199 73.3785 110.027 73.1426 109.827 72.9249C109.54 72.6075 109.238 72.3047 108.92 72.0177C107.822 71.0107 106.661 70.0672 105.645 68.9695C105.573 68.8969 105.527 68.8061 105.446 68.7608C105.364 68.7154 105.3 68.7608 105.21 68.6973L104.938 68.8696Z" fill="#F56C2C"/>
<path fill-rule="evenodd" clip-rule="evenodd" d="M104.057 72.0721C104.406 72.1164 104.758 72.1376 105.11 72.1357C105.457 72.1096 105.803 72.061 106.144 71.9905C107.704 71.7183 109.283 71.2285 110.798 70.9654L110.68 70.2759C109.373 70.5118 108.022 70.8928 106.67 71.1831C106.144 71.301 105.618 71.3826 105.091 71.4915C104.738 71.5732 104.402 71.673 104.039 71.7365L104.057 72.0721Z" fill="#F56C2C"/>
<path fill-rule="evenodd" clip-rule="evenodd" d="M106.836 68.4706C106.836 68.7972 106.836 69.1328 106.899 69.4776C106.963 69.8223 106.899 69.9221 106.963 70.1398C107.099 71.4281 107.181 72.7526 107.235 74.0408C107.226 74.1889 107.226 74.3373 107.235 74.4853C107.231 74.5155 107.231 74.546 107.235 74.5761L107.29 74.6668H107.779C107.801 74.6305 107.817 74.5906 107.825 74.5489C107.834 74.4614 107.834 74.3732 107.825 74.2858C107.825 73.1699 107.725 72.0268 107.607 70.9019C107.553 70.4755 107.516 70.0582 107.435 69.6499C107.353 69.2417 107.226 68.8243 107.108 68.4252L106.836 68.4706Z" fill="#F56C2C"/>
<path fill-rule="evenodd" clip-rule="evenodd" d="M22.959 61.5396C22.7594 62.3379 22.4963 63.0999 22.2695 63.8892C21.9339 65.0686 21.6345 66.2571 21.3623 67.4455C21.2172 68.0443 21.0629 68.643 20.9722 69.2599C20.9238 69.468 20.9024 69.6814 20.9087 69.8949C20.9002 69.949 20.9002 70.0042 20.9087 70.0583L21.4621 70.149L21.5438 70.0401C21.5996 69.8899 21.6422 69.7351 21.6708 69.5774C22.0155 68.144 22.3149 66.7198 22.6505 65.2954C22.7322 64.9416 22.8229 64.5787 22.8864 64.2158C23.0588 63.3086 23.1677 62.474 23.2584 61.594L22.959 61.5396Z" fill="#F56C2C"/>
<path fill-rule="evenodd" clip-rule="evenodd" d="M18.4297 63.381C18.7429 63.5571 19.0458 63.7509 19.3369 63.9617L19.9447 64.3608C20.4527 64.7056 20.9517 65.0685 21.4598 65.4314C22.122 65.885 22.8387 66.3386 23.5372 66.892C24.2358 67.4454 24.6894 67.8809 25.2246 68.3526C25.2669 68.3939 25.3161 68.4277 25.3698 68.4524C25.3698 68.4524 25.4242 68.4524 25.4605 68.4524L25.9232 68.026C25.9277 67.9989 25.9277 67.9714 25.9232 67.9443C25.8854 67.8657 25.8331 67.7948 25.769 67.7357C25.4945 67.4065 25.1909 67.1029 24.8618 66.8284C23.9546 66.0664 22.8478 65.386 21.8952 64.76C21.1799 64.2454 20.4313 63.7787 19.6544 63.3629C19.2988 63.209 18.9278 63.0934 18.5476 63.0182L18.4297 63.381Z" fill="#F56C2C"/>
<path fill-rule="evenodd" clip-rule="evenodd" d="M20.6249 61.6574C20.5432 61.7481 20.5432 61.6573 20.516 61.7662C20.4888 61.8751 20.516 61.8297 20.516 61.8569C20.6702 62.3105 20.8426 62.7641 21.024 63.1996C21.7437 64.9596 22.5058 66.6984 23.3102 68.416L23.5914 68.9786L24.3535 68.6428C24.2719 68.4251 24.1993 68.1893 24.0995 67.9715C23.2648 66.0119 22.1943 64.1703 21.3234 62.2107C21.2236 62.0021 21.2236 61.7118 21.0331 61.5757C20.8426 61.4396 20.9787 61.5757 20.8789 61.5757L20.6249 61.6574Z" fill="#F56C2C"/>
<path fill-rule="evenodd" clip-rule="evenodd" d="M20.1879 66.6832C20.5145 66.5744 20.8411 66.4927 21.1677 66.3748L21.7211 66.1389L22.5466 65.7579C23.2559 65.4607 23.944 65.1151 24.606 64.7237C24.6619 64.6947 24.7112 64.6545 24.7511 64.6057C24.7511 64.6057 24.7511 64.5513 24.7511 64.515L24.4336 63.9525C24.4336 63.9525 24.4336 63.9525 24.352 63.9525C24.2593 63.9707 24.1703 64.0044 24.0888 64.0523C23.1272 64.5059 22.1656 64.9595 21.2312 65.4948C21.0588 65.5946 20.8774 65.7034 20.7141 65.8214C20.4618 66.0145 20.2195 66.2204 19.9883 66.4383L20.1879 66.6832Z" fill="#F56C2C"/>
<path fill-rule="evenodd" clip-rule="evenodd" d="M104.559 110.71C105.054 109.798 105.796 109.044 106.7 108.533C107.079 108.326 107.485 108.174 107.906 108.079C109.784 107.68 111.952 108.406 114.084 108.987C115.493 109.441 116.968 109.656 118.448 109.622C119.992 109.567 121.455 108.917 122.53 107.807C122.949 107.373 123.317 106.892 123.628 106.374C123.932 105.869 124.196 105.342 124.417 104.795C124.535 104.532 124.617 104.251 124.717 103.97L124.209 103.752C124.1 103.933 123.991 104.106 123.891 104.287L123.474 105.095C122.979 106.142 122.264 107.07 121.378 107.816C120.515 108.471 119.475 108.85 118.393 108.905C116.995 108.936 115.601 108.74 114.266 108.324C112.025 107.744 109.73 107.063 107.77 107.517C107.287 107.624 106.825 107.808 106.4 108.061C105.458 108.684 104.72 109.571 104.277 110.611L104.559 110.71Z" fill="#A14DF6"/>
<path fill-rule="evenodd" clip-rule="evenodd" d="M31.7155 94.825C31.8244 94.7343 31.8244 94.825 31.8788 94.6889C31.8788 94.5891 31.8788 94.4803 31.8335 94.3805C31.6313 93.0358 31.2179 91.7315 30.6087 90.5158C29.9151 89.1392 28.8618 87.9761 27.5605 87.15C25.8997 86.2259 24.1369 85.4982 22.3078 84.9817C21.162 84.6688 20.0974 84.1117 19.1871 83.3488C18.1256 82.3145 17.5903 80.7088 17.8897 77.8148L17.2728 77.7422C16.8374 80.9537 17.4543 82.7591 18.6155 83.9203C19.6064 84.7771 20.7789 85.3975 22.0447 85.7347C23.8187 86.2201 25.5298 86.9112 27.1432 87.7941C28.0974 88.38 28.9068 89.1739 29.511 90.1166C30.3275 91.4214 30.8822 92.8727 31.144 94.3895C31.144 94.5256 31.1439 94.6889 31.2165 94.7978C31.2891 94.9066 31.2891 94.7978 31.4161 94.8704L31.7155 94.825Z" fill="#A14DF6"/>
<path fill-rule="evenodd" clip-rule="evenodd" d="M44.4501 32.4451C44.4501 31.9008 44.4501 31.3656 44.4501 30.8303C44.399 29.5662 44.2749 28.3061 44.0782 27.0563C43.9143 25.8457 43.6098 24.6583 43.171 23.5182C42.5786 22.1907 41.8903 20.9081 41.1116 19.6807C40.6054 18.874 40.1421 18.0413 39.7236 17.1858C39.4662 16.6551 39.2479 16.1063 39.0704 15.5438L38.5352 15.698C38.7472 16.5948 39.0512 17.4673 39.4424 18.3017C39.7145 18.8732 40.0139 19.4357 40.3496 19.9982C41.1132 21.2407 41.795 22.5317 42.3908 23.8629C42.7202 24.6696 42.9753 25.5046 43.1528 26.3577C43.4613 27.7821 43.5429 29.2155 43.7606 30.6579C43.8604 31.2839 44.0056 31.8917 44.1507 32.5177L44.4501 32.4451Z" fill="#A14DF6"/>
<path fill-rule="evenodd" clip-rule="evenodd" d="M126.139 59.9155C126.581 59.197 127.168 58.5789 127.863 58.1011C128.888 57.4847 129.973 56.974 131.102 56.577C131.87 56.2753 132.606 55.8953 133.297 55.4429C134.135 54.8378 134.865 54.0955 135.456 53.2475C136.309 52.0034 137.05 50.6858 137.67 49.3102L137.289 49.1197C136.624 50.4372 135.85 51.6965 134.975 52.8846C134.399 53.6557 133.701 54.327 132.907 54.8714C132.25 55.3119 131.555 55.6914 130.829 56.0054C129.692 56.4642 128.608 57.0484 127.6 57.7473C126.879 58.2739 126.279 58.9482 125.84 59.725L126.139 59.9155Z" fill="#279FF2"/>
<path fill-rule="evenodd" clip-rule="evenodd" d="M26.4648 78.4408C26.5971 78.5175 26.7334 78.5871 26.8731 78.6495C26.9645 78.6821 27.0586 78.7064 27.1543 78.722C29.8759 79.3662 31.4273 80.4548 32.3254 82.0333C33.4503 84.0111 33.4957 86.5694 33.405 89.3909C33.405 90.0441 33.3505 90.7063 33.3414 91.3686C33.3414 91.8131 33.3414 92.2758 33.3414 92.7022H33.8222C33.8767 92.2576 33.9492 91.795 33.9946 91.3867C34.0672 90.7154 34.1035 90.0441 34.1398 89.3909C34.2849 86.4515 34.1398 83.7208 32.9423 81.6432C31.9444 79.9195 30.2207 78.6313 27.2632 78.0688C27.1879 78.0593 27.1117 78.0593 27.0364 78.0688C26.8557 78.0713 26.676 78.0956 26.5012 78.1414L26.4648 78.4408Z" fill="#279FF2"/>
<path fill-rule="evenodd" clip-rule="evenodd" d="M108.474 106.537C108.572 106.441 108.663 106.338 108.746 106.229C108.818 106.12 108.855 105.993 108.909 105.893C109.267 104.989 109.964 104.26 110.851 103.861C111.551 103.6 112.289 103.453 113.037 103.425C114.241 103.38 115.438 103.219 116.611 102.945C117.681 102.619 118.666 102.062 119.496 101.312C120.472 100.449 121.33 99.4607 122.045 98.3722C122.236 98.091 122.39 97.8189 122.553 97.5467L122.145 97.2745C121.964 97.5195 121.755 97.7554 121.555 98.0094C120.8 99.0001 119.945 99.9119 119.006 100.731C118.257 101.415 117.369 101.929 116.403 102.237C114.207 102.854 112.157 102.527 110.569 103.226C109.957 103.443 109.412 103.818 108.992 104.314C108.571 104.809 108.289 105.407 108.174 106.047C108.161 106.189 108.161 106.332 108.174 106.474L108.474 106.537Z" fill="#279FF2"/>
<path fill-rule="evenodd" clip-rule="evenodd" d="M105.828 39.3853C105.828 39.1041 128.916 38.7049 128.916 38.7049C128.916 38.7049 127.102 55.452 120.824 55.452C114.546 55.452 105.828 52.177 105.828 39.3853Z" fill="#E1EBFF"/>
<path fill-rule="evenodd" clip-rule="evenodd" d="M119.6 55.2344C110.455 55.2344 107.915 38.9046 107.915 29.7871C107.915 20.6696 107.199 1.66345 98.8432 1.66345C90.4879 1.66345 82.0781 17.1405 82.0781 17.1405L86.4327 38.959L95.5048 55.443L119.6 55.2344Z" fill="#C2C5D6"/>
<path fill-rule="evenodd" clip-rule="evenodd" d="M89.0513 128.21C89.0513 110.275 88.6793 55.7423 87.7993 37.4892C79.9157 35.2665 71.5423 35.2302 62.9148 35.7745C51.1938 36.5094 44.1811 37.589 41.9675 40.5556C39.2459 44.13 40.1531 56.5316 40.3709 60.5142C41.7407 86.642 42.1853 86.5694 44.9069 112.552C45.3605 117.006 45.0339 123.175 48.2363 126.968C50.5315 129.689 55.7207 129.689 58.7054 129.853C71.4879 130.515 71.4606 130.469 84.2431 129.19C85.8783 129.05 87.4917 128.722 89.0513 128.21Z" fill="#CFCFD3"/>
<path fill-rule="evenodd" clip-rule="evenodd" d="M87.8008 37.4802C88.708 55.7424 89.0255 110.275 89.0527 128.201C91.5566 127.294 93.7248 125.797 94.632 123.003C95.4757 120.418 95.5392 116.535 95.7207 113.849C96.3648 105.394 97.1268 96.948 97.6893 88.4474C98.3788 77.9419 98.9836 67.4303 99.5037 56.9127C99.7305 52.2859 100.048 47.4595 97.5623 43.3045C95.8114 40.4105 91.9104 38.6505 88.9076 37.7251L87.8008 37.4802Z" fill="black"/>
<path fill-rule="evenodd" clip-rule="evenodd" d="M48.3675 44.0665C48.4763 33.5609 49.4471 13.5206 65.2233 1.72681C65.441 1.55444 98.8442 1.82662 98.8442 1.82662C98.8442 1.82662 87.6674 3.51403 80.183 42.5605C80.2375 42.8871 48.2586 44.0846 48.3675 44.0665Z" fill="#E1EBFF"/>
<path d="M84.139 56.2063L44 57.5589L44.703 78.422L84.842 77.0694L84.139 56.2063Z" fill="#878FEC"/>
<path fill-rule="evenodd" clip-rule="evenodd" d="M80.6999 83.0495H48.3672L49.7643 122.441H82.0788L80.6999 83.0495Z" fill="white"/>
<path d="M65.707 115.764C63.947 115.546 63.4844 117.143 63.7837 118.231C63.8724 118.479 64.0212 118.7 64.2166 118.876C64.412 119.052 64.648 119.176 64.9034 119.238C65.1588 119.3 65.4256 119.298 65.6798 119.231C65.9341 119.165 66.1679 119.036 66.3602 118.857C67.4126 117.977 66.9589 115.927 65.707 115.764Z" stroke="#808080" stroke-width="0.21773" stroke-linejoin="round"/>
<path d="M52.1406 117.505C53.9922 117.681 55.8577 117.647 57.7018 117.406" stroke="#C1C2CC" stroke-width="0.21773" stroke-linejoin="round"/>
<path d="M73.2148 116.39C73.8499 116.907 74.4577 117.451 75.0746 117.995L75.9818 118.903C76.3573 118.407 76.6882 117.878 76.9707 117.324C77.769 116.181 78.649 115.11 79.5017 114.004" stroke="#2FCC1A" stroke-width="0.21773" stroke-linejoin="round"/>
<path d="M132.324 62.5934L130.23 65.2175L134.904 68.9457L136.997 66.3217L132.324 62.5934Z" fill="black"/>
<path d="M131.019 59.4987L128.938 62.1169L133.601 65.8236L135.682 63.2054L131.019 59.4987Z" fill="#F56C2C"/>
<path fill-rule="evenodd" clip-rule="evenodd" d="M136.56 68.0532L130.718 63.3901L103.638 97.3471L101.688 106.147L109.48 102.001L136.56 68.0532Z" fill="#FFBA16"/>
<path fill-rule="evenodd" clip-rule="evenodd" d="M101.68 106.147L102.17 103.97L103.657 105.113L101.68 106.147Z" fill="black"/>
<path fill-rule="evenodd" clip-rule="evenodd" d="M105.08 97.7644C105.08 97.8189 105.08 97.9368 105.08 98.0003C105.08 98.0638 105.08 98.7986 105.08 99.098C105.072 99.1491 105.072 99.2012 105.08 99.2523C105.094 99.2776 105.116 99.2969 105.143 99.3067C105.276 99.3491 105.419 99.3491 105.552 99.3067C105.859 99.2257 106.162 99.1287 106.459 99.0164C106.564 98.9767 106.68 98.9767 106.786 99.0164C106.858 99.0164 106.867 99.1797 106.876 99.3158C106.876 99.6515 106.785 100.105 106.813 100.323C106.811 100.368 106.822 100.412 106.842 100.451C106.863 100.491 106.893 100.525 106.931 100.55C107.046 100.582 107.169 100.582 107.284 100.55C107.548 100.55 107.865 100.404 108.119 100.359C108.21 100.327 108.309 100.327 108.4 100.359C108.476 100.431 108.534 100.519 108.572 100.616C108.61 100.713 108.625 100.818 108.618 100.922C108.605 101.188 108.652 101.455 108.754 101.702C108.822 101.801 108.927 101.869 109.044 101.892H109.18V101.684H109.099C109.073 101.678 109.048 101.667 109.026 101.651C109.004 101.636 108.986 101.616 108.972 101.593C108.889 101.389 108.849 101.169 108.854 100.949C108.857 100.808 108.828 100.668 108.768 100.541C108.708 100.413 108.62 100.301 108.509 100.214C108.388 100.174 108.258 100.174 108.137 100.214C107.929 100.214 107.665 100.35 107.421 100.404C107.291 100.445 107.151 100.445 107.021 100.404C107.016 100.368 107.016 100.332 107.021 100.296C107.061 99.9522 107.083 99.607 107.085 99.2613C107.081 99.192 107.062 99.1243 107.029 99.0631C106.996 99.002 106.95 98.9489 106.894 98.9075C106.762 98.8605 106.618 98.8605 106.486 98.9075C106.25 98.962 105.96 99.089 105.688 99.1615C105.549 99.2054 105.4 99.2054 105.261 99.1615C105.261 98.8622 105.261 98.0911 105.261 98.0548C105.271 97.9431 105.271 97.8308 105.261 97.7191C105.248 97.6874 105.225 97.6607 105.196 97.6427C105.167 97.6248 105.132 97.6166 105.098 97.6193C104.832 97.6339 104.568 97.6703 104.309 97.7282C104.17 97.7405 104.033 97.7678 103.901 97.8098C103.864 97.8255 103.83 97.847 103.801 97.8733V98.0275H103.901H103.946C104.319 97.9191 104.697 97.8313 105.08 97.7644ZM105.307 99.1253C105.307 99.1253 105.325 99.1343 105.307 99.1253V99.1253Z" fill="black"/>
<path fill-rule="evenodd" clip-rule="evenodd" d="M106.3 97.4197C107.57 95.6778 108.877 93.9632 110.201 92.2576C113.295 88.2931 116.552 84.3921 119.6 80.4639C121.968 77.4429 124.272 74.313 126.694 71.2829C128.146 69.4685 129.634 67.654 131.23 66.0029C131.375 65.8487 131.52 65.7035 131.657 65.5493L131.747 65.4313L131.629 65.3043L131.511 65.4132C131.366 65.5583 131.221 65.7126 131.085 65.8668C129.506 67.5633 128.019 69.3414 126.549 71.1559C124.127 74.1859 121.822 77.3158 119.464 80.3459C116.379 84.3014 113.113 88.1933 110.074 92.1397C108.75 93.8453 107.455 95.575 106.191 97.329L106.3 97.4197Z" fill="black"/>
<path fill-rule="evenodd" clip-rule="evenodd" d="M109.148 101.094C109.549 100.665 109.922 100.211 110.264 99.7331C111.071 98.6445 111.779 97.4469 112.586 96.3855C113.394 95.3241 114.156 94.308 114.945 93.2828C116.142 91.7406 117.349 90.2165 118.574 88.6923C122.429 83.8388 126.484 79.1757 130.367 74.3584C132.027 72.299 133.66 70.2033 135.23 68.0623L135.057 67.9353C133.479 70.0673 131.837 72.1447 130.177 74.2041C126.294 79.0214 122.257 83.7026 118.383 88.5472C117.167 90.0803 115.961 91.6045 114.754 93.1467C113.962 94.181 113.176 95.2182 112.396 96.2585C111.597 97.329 110.89 98.5265 110.1 99.6333C109.763 100.104 109.399 100.555 109.012 100.985L109.148 101.094Z" fill="black"/>
<path fill-rule="evenodd" clip-rule="evenodd" d="M126.18 79.0577C126.18 79.0577 126.18 79.1484 126.18 79.1938C126.189 79.2614 126.205 79.3282 126.225 79.3934C126.225 79.5748 126.307 79.7563 126.352 79.9377C126.371 80.015 126.395 80.0907 126.425 80.1645H126.579C126.579 80.0919 126.579 80.0103 126.579 79.9286C126.579 79.847 126.497 79.5658 126.452 79.3843C126.456 79.3179 126.456 79.2512 126.452 79.1848L126.397 79.0577H126.18Z" fill="black"/>
<path fill-rule="evenodd" clip-rule="evenodd" d="M127.535 77.4611C127.53 77.5215 127.53 77.5821 127.535 77.6425C127.535 77.7877 127.535 77.9328 127.589 78.0689C127.644 78.205 127.653 78.4862 127.689 78.6858H127.852C127.857 78.6284 127.857 78.5708 127.852 78.5134C127.852 78.2866 127.789 78.0598 127.752 77.833C127.716 77.6062 127.752 77.5881 127.689 77.4611H127.535Z" fill="black"/>
<path fill-rule="evenodd" clip-rule="evenodd" d="M128.542 76.1093C128.538 76.1394 128.538 76.1699 128.542 76.2C128.568 76.4649 128.607 76.7283 128.66 76.9893C128.66 77.0981 128.66 77.2161 128.724 77.334L128.778 77.5608H128.941C128.937 77.4732 128.937 77.3854 128.941 77.2978C128.887 76.953 128.851 76.5992 128.778 76.2544C128.778 76.2091 128.778 76.1638 128.778 76.1184L128.542 76.1093Z" fill="black"/>
<path fill-rule="evenodd" clip-rule="evenodd" d="M129.559 75.1023C129.563 75.1506 129.563 75.1992 129.559 75.2474C129.559 75.447 129.649 75.6466 129.695 75.8371C129.712 75.9384 129.737 76.0383 129.767 76.1365L129.849 76.3361L130.003 76.2817C130.007 76.2182 130.007 76.1546 130.003 76.0911C129.949 75.828 129.894 75.5649 129.831 75.3019V75.2021C129.831 75.1476 129.831 75.1022 129.767 75.0569L129.559 75.1023Z" fill="black"/>
<path fill-rule="evenodd" clip-rule="evenodd" d="M130.449 74.1133C130.449 74.2131 130.449 74.3129 130.504 74.4127C130.558 74.5125 130.585 74.7302 130.631 74.8845C130.676 75.0387 130.676 75.0206 130.694 75.0931H130.857V74.9117C130.857 74.7665 130.794 74.6304 130.758 74.4944L130.703 74.3039C130.683 74.2375 130.656 74.1735 130.622 74.1133H130.449Z" fill="black"/>
<path fill-rule="evenodd" clip-rule="evenodd" d="M131.238 73.3877C131.238 73.3877 131.238 73.4421 131.238 73.4693C131.238 73.6507 131.347 73.8322 131.402 74.0046C131.456 74.1769 131.465 74.1588 131.492 74.2405L131.656 74.186C131.656 74.1134 131.656 74.0318 131.656 73.9501C131.656 73.8685 131.565 73.5872 131.51 73.4058C131.514 73.3787 131.514 73.3513 131.51 73.3242L131.238 73.3877Z" fill="black"/>
<path fill-rule="evenodd" clip-rule="evenodd" d="M132.101 72.2446C132.097 72.2655 132.097 72.2871 132.101 72.3081C132.097 72.3503 132.097 72.3929 132.101 72.4351C132.143 72.6105 132.198 72.7828 132.264 72.9522C132.264 73.0157 132.319 73.0883 132.346 73.1609L132.509 73.1155L132.455 72.8887C132.418 72.7194 132.373 72.547 132.319 72.3716C132.319 72.3716 132.319 72.2809 132.319 72.2446V72.1992L132.101 72.2446Z" fill="black"/>
<path fill-rule="evenodd" clip-rule="evenodd" d="M132.796 71.1287C132.792 71.1557 132.792 71.1832 132.796 71.2103C132.792 71.2646 132.792 71.3192 132.796 71.3736C132.796 71.6276 132.887 71.8816 132.95 72.1266L133.005 72.308H133.168V72.1175C133.168 71.8635 133.087 71.6094 133.032 71.3645C133.022 71.3088 133.007 71.2541 132.987 71.2012V71.1287H132.796Z" fill="black"/>
<path fill-rule="evenodd" clip-rule="evenodd" d="M133.496 70.3939C133.496 70.4756 133.496 70.5663 133.496 70.6479V70.8112C133.52 70.9793 133.553 71.1459 133.596 71.3102C133.6 71.3524 133.6 71.3949 133.596 71.4372H133.759C133.764 71.3859 133.764 71.3343 133.759 71.283C133.759 71.0925 133.705 70.9019 133.659 70.7114C133.635 70.6071 133.604 70.5041 133.569 70.4029L133.496 70.3939Z" fill="black"/>
<path fill-rule="evenodd" clip-rule="evenodd" d="M134.113 69.287C134.108 69.3018 134.108 69.3177 134.113 69.3324V69.3959C134.113 69.5411 134.113 69.6863 134.177 69.8314C134.24 69.9766 134.231 70.2034 134.267 70.3939C134.304 70.5844 134.313 70.5571 134.331 70.6388H134.512V70.3939C134.512 70.0673 134.43 69.7498 134.358 69.4322C134.363 69.3992 134.363 69.3655 134.358 69.3324L134.113 69.287Z" fill="black"/>
<path fill-rule="evenodd" clip-rule="evenodd" d="M134.941 68.4251C134.936 68.4976 134.936 68.5703 134.941 68.6428C134.941 68.7426 134.941 68.8424 134.986 68.9513C135.032 69.0602 135.05 69.3686 135.104 69.5773V69.7315H135.304C135.3 69.662 135.3 69.5923 135.304 69.5229C135.259 69.2507 135.213 68.9785 135.159 68.7063C135.159 68.6156 135.159 68.534 135.095 68.4524L134.941 68.4251Z" fill="black"/>
<path fill-rule="evenodd" clip-rule="evenodd" d="M139.084 63.6714C139.029 63.7624 138.966 63.8475 138.893 63.9254C138.739 64.1069 138.549 64.2792 138.44 64.3971L137.124 65.9485C137.124 65.9485 137.079 65.9485 137.07 66.012L136.997 66.1299L137.115 66.2388L137.224 66.1571L137.279 66.0846C137.732 65.5856 138.186 65.0776 138.621 64.5786C138.748 64.4334 138.984 64.2157 139.148 64.007C139.227 63.915 139.291 63.8109 139.338 63.6986C139.337 63.6686 139.328 63.6394 139.312 63.614C139.296 63.5885 139.274 63.5676 139.247 63.5534L138.893 63.3539L138.422 63.0545C138.318 62.9879 138.218 62.9152 138.122 62.8368C137.623 62.4648 137.161 62.0112 136.68 61.603C136.462 61.4306 136.244 61.2582 136.018 61.1039L135.891 61.2945C136.118 61.4414 136.336 61.602 136.544 61.7753C137.025 62.1836 137.451 62.6281 137.995 63.0091C138.095 63.0908 138.204 63.1543 138.313 63.2268L138.785 63.5353L139.084 63.6714Z" fill="black"/>
<path fill-rule="evenodd" clip-rule="evenodd" d="M59.0699 126.541C59.2789 126.273 59.3758 125.934 59.3403 125.596C59.3048 125.257 59.1396 124.946 58.8795 124.727L21.6842 94.5439C21.4158 94.3349 21.0769 94.2379 20.7386 94.2734C20.4003 94.309 20.0889 94.4742 19.8698 94.7343L0.664293 118.376C0.455292 118.645 0.358393 118.984 0.393915 119.322C0.429437 119.66 0.594637 119.972 0.854825 120.191L38.0501 150.374C38.3176 150.585 38.6571 150.683 38.996 150.648C39.335 150.612 39.6467 150.445 39.8645 150.183L59.0699 126.541Z" fill="#F56C2C"/>
<path fill-rule="evenodd" clip-rule="evenodd" d="M84.1649 56.4681C84.1649 56.7584 84.0651 57.4933 84.056 57.6112C84.056 57.8834 84.056 58.1555 84.056 58.4277C84.056 59.5164 84.2283 60.5959 84.183 61.6755C84.1286 62.9093 84.183 64.1431 84.183 65.386C84.2828 67.2004 84.4642 69.0783 84.5912 70.9109C84.7182 72.7435 84.5912 74.3493 84.6548 76.0548C84.6548 76.4812 84.6548 76.962 84.7273 77.3431H85.0086C85.0086 76.9167 84.9451 76.4903 84.936 76.0639C84.8815 74.3493 84.9904 72.6165 84.8725 70.9109C84.7545 69.2053 84.5731 67.2277 84.4733 65.386C84.4098 64.1613 84.3917 62.9275 84.4733 61.7572C84.4733 61.485 84.4733 61.2037 84.4733 60.9316C84.4733 59.8429 84.3009 58.7634 84.3463 57.6838C84.3463 57.5749 84.428 57.0034 84.437 56.6586C84.458 56.5661 84.458 56.47 84.437 56.3774C84.437 56.323 84.437 56.2957 84.3644 56.2866C84.0791 56.1622 83.7677 56.1093 83.4572 56.1324C82.7768 56.1324 81.9241 56.2957 81.534 56.2957C80.781 56.2957 80.0189 56.2957 79.2569 56.3592C77.4878 56.4409 75.7188 56.5679 73.9498 56.6405C69.8764 56.8038 65.785 57.1848 61.6935 57.3844C59.9335 57.4751 58.1826 57.5296 56.4408 57.5205C53.565 57.5205 50.6619 57.203 47.7861 57.2937C46.6668 57.3211 45.551 57.4302 44.4476 57.6203H44.2299L44.0938 57.7019V57.8652C44.1451 57.8696 44.1967 57.8696 44.248 57.8652C44.3644 57.8529 44.4796 57.8316 44.5928 57.8017C46.0518 57.5811 47.5262 57.4779 49.0017 57.4932C51.4693 57.4932 53.946 57.7291 56.4045 57.7473C58.1554 57.7473 59.9153 57.7473 61.6753 57.6112C65.7668 57.4025 69.8401 57.0215 73.9316 56.8673C75.7007 56.7947 77.4697 56.6677 79.2388 56.5951C80.0008 56.5951 80.7538 56.5316 81.5158 56.5225C81.8968 56.5225 82.7587 56.3774 83.43 56.3592C83.68 56.342 83.9307 56.3791 84.1649 56.4681ZM84.1649 56.4681C84.1467 56.459 84.1649 56.4681 84.1649 56.4681V56.4681Z" fill="black"/>
<path d="M45.6875 44.2207C58.0527 45.3275 70.5085 42.8145 82.8828 42.7238" stroke="black" stroke-width="0.907207" stroke-linejoin="round"/>
<path d="M74.0135 68.2982C72.6345 68.2982 70.2849 68.1893 69.0692 68.7972C68.4433 69.1238 67.7901 70.3213 68.543 70.8565C69.8948 71.8182 72.3896 70.1943 73.8955 70.784C74.1277 70.8628 74.3275 71.0159 74.4639 71.2196C74.6004 71.4234 74.666 71.6664 74.6505 71.9111C74.635 72.1558 74.5393 72.3886 74.3783 72.5735C74.2172 72.7584 73.9997 72.8852 73.7594 72.9341C71.945 73.4421 69.8585 73.0157 68.0078 73.17" stroke="#6169D0" stroke-width="0.0907207" stroke-linejoin="round"/>
<path d="M70.082 66.1028C70.082 69.3052 70.082 72.4986 70.2635 75.692" stroke="#6169D0" stroke-width="0.0907207" stroke-linejoin="round"/>
<path d="M72.134 65.7125C72.0495 69.0653 72.1828 72.4199 72.5331 75.7554" stroke="#6169D0" stroke-width="0.0907207" stroke-linejoin="round"/>
<path fill-rule="evenodd" clip-rule="evenodd" d="M58.0705 83.6845C58.016 83.6845 58.0251 83.6845 57.9888 83.6845C57.9525 83.6845 57.9888 83.7934 57.9888 83.8478C57.9888 84.4375 57.9888 85.0272 57.9888 85.6622C57.9888 91.5531 58.0674 97.45 58.2247 103.353C58.4242 109.915 58.7629 116.462 59.2407 122.994H59.776C59.2952 116.48 58.9776 109.93 58.778 103.38C58.5966 97.4923 58.5059 91.5864 58.4877 85.7076C58.4877 85.1179 58.4877 84.5283 58.4877 83.8932C58.4877 83.8388 58.4877 83.7752 58.4877 83.7299C58.4877 83.6845 58.4878 83.7299 58.4061 83.7299L58.0705 83.6845Z" fill="black"/>
<path fill-rule="evenodd" clip-rule="evenodd" d="M70.3267 83.1038C70.3267 83.5393 70.245 84.0111 70.2268 84.4012C70.2268 85.0453 70.2268 85.6985 70.2268 86.3517C70.2813 90.6609 70.7349 94.9793 70.6442 99.2885C70.5353 104.859 70.0908 110.592 70.1452 116.253C70.1452 118.204 70.2268 120.154 70.3992 122.078C70.3992 122.368 70.4537 122.667 70.499 122.985C70.5317 123.177 70.5741 123.368 70.626 123.556L71.0252 123.511C71.0342 123.351 71.0342 123.19 71.0252 123.03C71.0345 122.87 71.0345 122.71 71.0252 122.549C70.7893 119.683 70.6896 116.78 70.7258 113.867C70.7803 109.005 71.1068 104.106 71.1976 99.352C71.1976 98.2634 71.1976 97.1838 71.1976 96.0951C71.0705 92.2122 70.7802 88.3294 70.7349 84.4556C70.7349 84.0202 70.7349 83.5484 70.7349 83.1583L70.3267 83.1038Z" fill="black"/>
<path fill-rule="evenodd" clip-rule="evenodd" d="M48.6559 95.3876C48.713 95.4194 48.774 95.4439 48.8373 95.4602C48.9699 95.447 49.1007 95.4196 49.2274 95.3785C50.8695 95.0882 52.5296 94.9158 54.1989 94.7888C57.0021 94.5801 59.8145 94.5076 62.5996 94.2626C66.1286 93.9451 69.7211 93.4915 73.3136 93.2193C75.4637 93.0651 77.6138 93.0107 79.7457 93.0016H80.4624V92.4845H79.7366C77.5751 92.435 75.4125 92.5076 73.2592 92.7022C69.6304 92.9744 66.0651 93.428 62.527 93.7455C59.2883 94.0449 55.9952 94.0902 52.7383 94.4078C51.4773 94.5348 50.2163 94.7072 48.9734 94.943C48.8902 94.9485 48.8081 94.9637 48.7285 94.9884C48.6559 94.9884 48.6377 95.07 48.5742 95.1244L48.6559 95.3876Z" fill="black"/>
<path fill-rule="evenodd" clip-rule="evenodd" d="M49.3633 103.997C49.412 104.027 49.4637 104.051 49.5175 104.07H49.6173H50.6061C52.2391 103.97 53.863 103.752 55.496 103.67C60.032 103.444 64.6678 103.371 69.2583 103.19C71.236 103.108 73.2045 103.008 75.1641 102.863C76.4614 102.772 77.7406 102.555 79.0288 102.428C79.5731 102.364 80.1265 102.328 80.6708 102.31V101.756C80.1084 101.756 79.555 101.82 78.9925 101.874C77.7134 102.01 76.4342 102.219 75.146 102.319C73.1864 102.464 71.2269 102.564 69.2583 102.654C64.6678 102.845 60.0683 102.927 55.4869 103.162C53.6725 103.262 51.8581 103.543 49.9802 103.625C49.8417 103.607 49.7014 103.607 49.5629 103.625C49.4973 103.639 49.4354 103.667 49.3814 103.707L49.3633 103.997Z" fill="black"/>
<path fill-rule="evenodd" clip-rule="evenodd" d="M49.677 113.75C49.7388 113.792 49.8059 113.825 49.8766 113.849C49.9428 113.859 50.01 113.859 50.0762 113.849C51.2556 113.849 52.444 113.849 53.6415 113.777C56.7079 113.586 59.7923 113.105 62.7951 112.797C65.798 112.489 68.8462 112.235 71.8672 112.062C74.8881 111.89 77.9636 111.772 80.9936 111.717V111.209C77.9636 111.255 74.9063 111.354 71.8491 111.536C68.7918 111.717 65.7436 111.944 62.7226 112.262C60.1552 112.525 57.5243 112.897 54.8935 113.169C53.324 113.305 51.7545 113.396 50.1942 113.378C50.0915 113.369 49.9883 113.369 49.8857 113.378C49.8116 113.404 49.7389 113.434 49.668 113.468L49.677 113.75Z" fill="black"/>
<path fill-rule="evenodd" clip-rule="evenodd" d="M82.0419 122.432H76.3628C71.8268 122.486 67.2908 122.187 62.7003 122.241C61.3214 122.241 59.9788 122.241 58.5907 122.395C58.0011 122.45 57.4205 122.531 56.8398 122.613V122.931C57.4295 122.931 58.0101 122.931 58.5907 122.876C59.9515 122.876 61.3123 122.767 62.6731 122.767C67.2092 122.767 71.8268 123.058 76.3356 123.03H80.9351C81.0258 123.03 81.8423 123.03 82.1598 123.03C82.2496 123.031 82.3378 123.006 82.4135 122.958C82.4892 122.909 82.5492 122.84 82.5862 122.758C82.6552 122.214 82.6825 121.665 82.6678 121.116C82.6678 119.864 82.5046 118.54 82.4683 117.387C82.3866 115.364 82.3141 113.359 82.2324 111.345C82.1689 110.003 82.1054 108.624 82.0328 107.317C81.8393 104.076 81.6911 100.834 81.5883 97.5921C81.4159 92.7203 81.3071 87.8486 81.1619 82.9769H80.6811C80.8444 88.656 80.9714 94.3442 81.1709 100.023C81.2496 102.443 81.3494 104.862 81.4703 107.281C81.5429 108.633 81.5974 110.003 81.6518 111.309C81.7244 113.311 81.7909 115.322 81.8513 117.342C81.8513 118.494 82.0419 119.81 82.06 121.062C82.0873 121.579 82.0782 122.014 82.0419 122.432Z" fill="black"/>
<path d="M1.67188 120.653C11.1703 128.002 20.1969 135.985 29.6953 143.334C32.0087 145.148 34.0408 147.262 36.3088 149.122C37.0709 149.739 38.1232 150.882 39.1846 150.637C40.0067 150.358 40.7248 149.836 41.244 149.14C42.6127 147.482 43.8965 145.756 45.0905 143.969C49.69 137.963 54.5526 132.175 59.2428 126.269" stroke="black" stroke-width="0.907207" stroke-linejoin="round"/>
<path d="M82.375 31.9371C82.8467 30.8394 83.0917 29.6691 83.4999 28.5441C85.6772 22.5112 87.3918 16.3059 90.3039 10.5632C91.8734 7.46054 94.2865 3.77724 97.5615 2.21683C101.19 0.456839 103.848 5.09269 105.109 7.70546C106.497 10.6085 106.715 13.5389 107.123 16.6869C107.917 21.9798 108.1 27.3464 107.668 32.681" stroke="black" stroke-width="0.907207" stroke-linejoin="round"/>
<path d="M113.533 52.0681C114.428 53.0114 115.444 53.832 116.554 54.5085C117.318 54.9341 118.15 55.2228 119.013 55.3613C119.64 55.3992 120.268 55.3779 120.891 55.2978C125.681 54.8714 126.543 48.4755 127.359 44.756C127.686 43.259 128.067 41.7712 128.43 40.2834C128.493 40.0021 128.965 38.9498 128.874 38.723C128.874 38.723 128.021 38.8046 127.967 38.8137C127.06 38.9135 126.089 39.0042 125.155 39.0224C120.982 39.0949 116.754 38.85 112.617 39.358" stroke="black" stroke-width="0.907207" stroke-linejoin="round"/>
<path d="M99.668 55.1798C102.018 55.3522 104.349 55.08 106.699 55.0528C110.11 55.0528 113.566 55.1617 116.968 55.3885" stroke="black" stroke-width="0.907207" stroke-linejoin="round"/>
</svg>
